<?xml version="1.0" encoding="UTF-8"?>
<!DOCTYPE svg PUBLIC "-//W3C//DTD SVG 1.1//EN" "http://www.w3.org/Graphics/SVG/1.1/DTD/svg11.dtd">
<svg xmlns="http://www.w3.org/2000/svg" version="1.1" width="3528px" height="3993px" style="shape-rendering:geometricPrecision; text-rendering:geometricPrecision; image-rendering:optimizeQuality; fill-rule:evenodd; clip-rule:evenodd" xmlns:xlink="http://www.w3.org/1999/xlink">
<g><path style="opacity:0.991" fill="#fefefe" d="M 1759.5,13.5 C 1781.67,12.5169 1803.34,15.3503 1824.5,22C 2283.78,151.869 2743.11,281.536 3202.5,411C 3272.19,434.494 3312.69,482.661 3324,555.5C 3381.33,1073.5 3438.67,1591.5 3496,2109.5C 3500.42,2143.03 3496.09,2175.36 3483,2206.5C 3395.79,2374.01 3297.79,2534.34 3189,2687.5C 3052.64,2880.28 2900.14,3060.45 2731.5,3228C 2584.98,3371.93 2426.32,3499.93 2255.5,3612C 2120.15,3699.52 1977.15,3773.18 1826.5,3833C 1789.83,3845.67 1753.17,3845.67 1716.5,3833C 1549.21,3766.54 1391.54,3683.2 1243.5,3583C 1069.46,3464.03 908.295,3328.53 760,3176.5C 501.324,2908.55 281.99,2611.89 102,2286.5C 85.6144,2257.06 70.281,2227.06 56,2196.5C 46.1181,2168.23 43.1181,2139.23 47,2109.5C 104.333,1591.5 161.667,1073.5 219,555.5C 230.314,482.661 270.814,434.494 340.5,411C 799.891,281.536 1259.22,151.869 1718.5,22C 1732.08,18.0515 1745.75,15.2182 1759.5,13.5 Z"/></g>
<g><path style="opacity:1" fill="#130c15" d="M 1755.5,71.5 C 1775.85,70.5679 1795.85,72.7346 1815.5,78C 2264.17,204.667 2712.83,331.333 3161.5,458C 3224.92,479.755 3263.08,523.589 3276,589.5C 3333.23,1101.92 3389.73,1614.42 3445.5,2127C 3445.24,2156.45 3438.41,2184.28 3425,2210.5C 3256.41,2528.74 3049.74,2819.74 2805,3083.5C 2661.47,3236.61 2505.31,3374.11 2336.5,3496C 2179.32,3607.95 2010.65,3700.28 1830.5,3773C 1794.97,3786.76 1758.97,3788.1 1722.5,3777C 1538.4,3703.98 1366.4,3610.31 1206.5,3496C 1032.14,3370.05 871.309,3227.55 724,3068.5C 485.458,2808.57 283.458,2522.57 118,2210.5C 104.654,2184.28 97.8208,2156.45 97.5,2127C 153.113,1619.48 208.946,1111.98 265,604.5C 271.002,548.298 297.502,504.798 344.5,474C 356.895,466.97 369.895,461.303 383.5,457C 832.153,330.344 1280.82,203.677 1729.5,77C 1738.24,74.8326 1746.9,72.9993 1755.5,71.5 Z"/></g>
<g><path style="opacity:1" fill="#fcaa00" d="M 1755.5,139.5 C 1768.94,138.923 1782.28,139.756 1795.5,142C 2245.3,269.559 2695.3,396.559 3145.5,523C 3180.67,535.507 3202.5,560.007 3211,596.5C 3260.15,1044.56 3309.82,1492.56 3360,1940.5C 3366.72,2003.32 3373.22,2066.15 3379.5,2129C 3380.19,2142.8 3377.69,2155.97 3372,2168.5C 3194.44,2504.94 2973.77,2810.28 2710,3084.5C 2590.83,3206.49 2463.33,3317.99 2327.5,3419C 2165.37,3538.77 1990.04,3636.44 1801.5,3712C 1782.29,3718.86 1762.95,3719.19 1743.5,3713C 1597.67,3655.29 1459.67,3583.62 1329.5,3498C 1149.36,3378.29 983.523,3240.13 832,3083.5C 569.141,2810.1 349.141,2505.77 172,2170.5C 165.947,2157.51 163.114,2143.84 163.5,2129.5C 184.743,1930.81 206.243,1732.14 228,1533.5C 263.033,1221.2 297.7,908.868 332,596.5C 338.817,564.336 356.984,541.169 386.5,527C 390.09,525.47 393.757,524.136 397.5,523C 850.308,395.225 1302.97,267.391 1755.5,139.5 Z"/></g>
<g><path style="opacity:1" fill="#130c15" d="M 1761.5,175.5 C 1774.28,175.348 1786.95,176.514 1799.5,179C 2235.34,302.395 2671.18,425.562 3107,548.5C 3149.86,565.203 3175.53,596.203 3184,641.5C 3238.07,1129.15 3292.07,1616.82 3346,2104.5C 3347.96,2127.44 3344.29,2149.44 3335,2170.5C 3222.13,2383.89 3091.13,2584.89 2942,2773.5C 2814.91,2934.83 2674.41,3084.33 2520.5,3222C 2377.45,3348.7 2222.45,3458.7 2055.5,3552C 1972.25,3597.63 1886.25,3637.29 1797.5,3671C 1773.5,3676.01 1750.16,3674.01 1727.5,3665C 1553.64,3594.61 1391.31,3504.94 1240.5,3396C 1088.64,3285.88 947.811,3162.05 818,3024.5C 576.612,2767.1 373.278,2482.43 208,2170.5C 200.526,2153.97 196.693,2136.63 196.5,2118.5C 199.628,2086.51 202.795,2054.51 206,2022.5C 256.667,1564.5 307.333,1106.5 358,648.5C 365.227,598.611 392.394,564.777 439.5,547C 873.075,425.194 1306.41,302.861 1739.5,180C 1746.97,178.46 1754.3,176.96 1761.5,175.5 Z"/></g>
<g><path style="opacity:1" fill="#feab00" d="M 1455.5,3118.5 C 1455.82,3114.45 1455.49,3110.45 1454.5,3106.5C 1453.89,3106.62 1453.56,3106.96 1453.5,3107.5C 1443.68,3115.59 1434.01,3123.92 1424.5,3132.5C 1424.86,3118.31 1424.86,3104.14 1424.5,3090C 1408.49,3085.17 1392.49,3080.33 1376.5,3075.5C 1374.77,3077.28 1373.27,3079.28 1372,3081.5C 1376.25,3041.83 1380.92,3002.16 1386,2962.5C 1387.2,2949.24 1385.87,2936.24 1382,2923.5C 1370.4,2882.94 1350.06,2847.6 1321,2817.5C 1291.31,2788.8 1260.14,2761.96 1227.5,2737C 1187.83,2711.35 1151.66,2681.19 1119,2646.5C 1068.6,2588.4 1031.6,2522.4 1008,2448.5C 979.86,2358.69 966.027,2266.69 966.5,2172.5C 966.554,2147.43 967.554,2122.43 969.5,2097.5C 962.918,2086 956.085,2074.67 949,2063.5C 839.421,2129.7 743.088,2212.03 660,2310.5C 597.768,2386.24 548.268,2469.91 511.5,2561.5C 416.465,2428.18 330.965,2288.51 255,2142.5C 250.911,2131.16 249.578,2119.49 251,2107.5C 305.51,1620.58 359.51,1133.58 413,646.5C 418.612,624.556 431.779,609.056 452.5,600C 888.05,476.594 1323.72,353.594 1759.5,231C 1765.78,229.576 1772.11,229.242 1778.5,230C 2216.61,353.359 2654.61,477.026 3092.5,601C 3112.31,610.144 3124.81,625.311 3130,646.5C 3183.56,1133.89 3237.56,1621.22 3292,2108.5C 3293.39,2120.18 3292.06,2131.52 3288,2142.5C 3212.02,2288.55 3126.52,2428.21 3031.5,2561.5C 2990.16,2458.07 2932.66,2365.07 2859,2282.5C 2790.69,2206.98 2714.19,2141.65 2629.5,2086.5C 2626.98,2088.19 2624.98,2090.36 2623.5,2093C 2622.55,2093.48 2621.55,2093.65 2620.5,2093.5C 2629.87,2201.8 2620.7,2308.46 2593,2413.5C 2577.12,2474.24 2552.79,2531.24 2520,2584.5C 2495.23,2622.28 2465.73,2656.11 2431.5,2686C 2404.01,2706.91 2376.35,2727.58 2348.5,2748C 2331.46,2761.52 2314.8,2775.52 2298.5,2790C 2282.64,2805.53 2267.14,2821.36 2252,2837.5C 2228.15,2867.99 2212.15,2902.32 2204,2940.5C 2200.49,2987.84 2196.82,3035.17 2193,3082.5C 2183.5,3085.42 2174,3088.42 2164.5,3091.5C 2164.17,3092.33 2163.83,3093.17 2163.5,3094C 2164.98,3106.8 2165.48,3119.63 2165,3132.5C 2153.63,3122.13 2141.96,3112.13 2130,3102.5C 2130.22,3138.67 2131.06,3174.83 2132.5,3211C 2132.53,3217.88 2132.03,3224.71 2131,3231.5C 2127.12,3244.46 2122.46,3257.13 2117,3269.5C 2106.73,3288.76 2096.07,3307.76 2085,3326.5C 2074.58,3352.74 2063.58,3378.74 2052,3404.5C 2042.77,3384.38 2033.27,3364.38 2023.5,3344.5C 2019.78,3367.47 2016.28,3390.47 2013,3413.5C 1991.78,3403.89 1970.45,3394.56 1949,3385.5C 1944.08,3393.67 1939.41,3402.01 1935,3410.5C 1929.63,3417.52 1922.8,3422.69 1914.5,3426C 1898.11,3432.91 1881.11,3437.57 1863.5,3440C 1838.8,3442.95 1815.96,3437.78 1795,3424.5C 1788.26,3428.12 1781.43,3431.62 1774.5,3435C 1746.23,3443 1718.23,3442 1690.5,3432C 1680.88,3428.24 1671.54,3423.91 1662.5,3419C 1660.33,3416.83 1658.17,3414.67 1656,3412.5C 1651.17,3403.5 1646.33,3394.5 1641.5,3385.5C 1622.08,3394.97 1601.74,3401.64 1580.5,3405.5C 1575.27,3386.92 1569.27,3368.59 1562.5,3350.5C 1553.67,3369.49 1544.84,3388.49 1536,3407.5C 1528.14,3388.25 1520.47,3368.91 1513,3349.5C 1491.42,3309.06 1472.75,3267.39 1457,3224.5C 1456.6,3218.12 1457.1,3211.78 1458.5,3205.5C 1457.02,3176.52 1456.02,3147.52 1455.5,3118.5 Z"/></g>
<g><path style="opacity:1" fill="#130c14" d="M 1776.5,269.5 C 2220.2,390.009 2663.87,510.676 3107.5,631.5C 3126.83,803.155 3146.17,974.822 3165.5,1146.5C 2241.5,1146.5 1317.5,1146.5 393.5,1146.5C 412.507,974.767 432.174,803.101 452.5,631.5C 890.685,511.537 1329.02,392.037 1767.5,273C 1770.66,271.973 1773.66,270.806 1776.5,269.5 Z"/></g>
<g><path style="opacity:1" fill="#fdab00" d="M 1607.5,738.5 C 1641.42,734.374 1672.09,742.208 1699.5,762C 1729.26,788.756 1743.6,822.256 1742.5,862.5C 1743.44,903.554 1729.11,938.054 1699.5,966C 1674.44,985.02 1646.11,993.353 1614.5,991C 1571.5,987.094 1540.33,965.927 1521,927.5C 1504.33,885.85 1504.33,844.183 1521,802.5C 1538.49,765.687 1567.32,744.354 1607.5,738.5 Z"/></g>
<g><path style="opacity:1" fill="#fdab00" d="M 2317.5,738.5 C 2341.82,736.331 2365.49,739.164 2388.5,747C 2411.42,757.423 2427.76,774.256 2437.5,797.5C 2437.29,798.086 2436.96,798.586 2436.5,799C 2416.12,804.634 2395.95,810.801 2376,817.5C 2372.54,812.097 2368.71,806.93 2364.5,802C 2358.94,797.589 2352.61,794.922 2345.5,794C 2337.09,793.095 2328.76,793.428 2320.5,795C 2311.05,800.04 2309.05,807.207 2314.5,816.5C 2317.17,818.835 2320.17,820.669 2323.5,822C 2350.58,827.511 2377.25,834.511 2403.5,843C 2434.83,859.823 2448,885.989 2443,921.5C 2439.17,941.986 2428.67,958.153 2411.5,970C 2384,987.199 2354,994.199 2321.5,991C 2271.29,988.933 2238.63,964.099 2223.5,916.5C 2247.07,911.691 2270.74,907.358 2294.5,903.5C 2299.12,919.665 2309.79,929.165 2326.5,932C 2337.36,934.367 2348.02,933.701 2358.5,930C 2368.14,924.879 2369.97,917.712 2364,908.5C 2361.08,906.288 2357.91,904.455 2354.5,903C 2334.37,898.634 2314.37,893.634 2294.5,888C 2245.47,872.784 2227.64,840.284 2241,790.5C 2250.62,769.547 2266.12,754.714 2287.5,746C 2297.47,742.805 2307.47,740.305 2317.5,738.5 Z"/></g>
<g><path style="opacity:1" fill="#fdab00" d="M 2915.5,738.5 C 2938.51,736.466 2960.84,739.299 2982.5,747C 3011.53,761.832 3029.36,785.332 3036,817.5C 3037.1,824.139 3037.94,830.805 3038.5,837.5C 3014.82,838.263 2991.16,839.263 2967.5,840.5C 2969.28,824.66 2964.61,811.16 2953.5,800C 2933.96,789.18 2919.13,793.68 2909,813.5C 2905.44,822.858 2903.1,832.525 2902,842.5C 2901.33,858.167 2901.33,873.833 2902,889.5C 2903.15,899.925 2905.82,909.925 2910,919.5C 2918.65,931.968 2930.48,936.468 2945.5,933C 2955.31,929.859 2961.81,923.359 2965,913.5C 2967.13,906.965 2968.63,900.298 2969.5,893.5C 2992.53,894.737 3015.53,896.404 3038.5,898.5C 3029.65,959.016 2994.65,989.683 2933.5,990.5C 2876.48,988.663 2840.98,959.996 2827,904.5C 2820.15,869.673 2822.82,835.673 2835,802.5C 2850.55,766.763 2877.39,745.43 2915.5,738.5 Z"/></g>
<g><path style="opacity:1" fill="#fdaa00" d="M 751.5,985.5 C 726.339,986.498 701.005,986.831 675.5,986.5C 671.046,971.134 666.379,955.801 661.5,940.5C 639.51,939.5 617.51,939.167 595.5,939.5C 590.833,955.5 586.167,971.5 581.5,987.5C 561.167,987.5 540.833,987.5 520.5,987.5C 544.819,906.041 569.652,824.707 595,743.5C 608.278,742.176 621.778,741.509 635.5,741.5C 649.073,741.504 662.573,741.838 676,742.5C 701.636,823.386 726.803,904.386 751.5,985.5 Z"/></g>
<g><path style="opacity:1" fill="#885b0a" d="M 869.5,742.5 C 836.833,742.5 804.167,742.5 771.5,742.5C 771.5,824.167 771.5,905.833 771.5,987.5C 770.501,905.668 770.167,823.668 770.5,741.5C 803.671,741.168 836.671,741.502 869.5,742.5 Z"/></g>
<g><path style="opacity:1" fill="#feab00" d="M 771.5,987.5 C 771.5,905.833 771.5,824.167 771.5,742.5C 804.167,742.5 836.833,742.5 869.5,742.5C 881.421,785.103 893.255,827.77 905,870.5C 916.229,827.86 927.395,785.193 938.5,742.5C 971.493,741.5 1004.49,741.167 1037.5,741.5C 1037.5,823.5 1037.5,905.5 1037.5,987.5C 1014.17,987.5 990.833,987.5 967.5,987.5C 967.667,929.832 967.5,872.166 967,814.5C 952.007,872.138 937.174,929.805 922.5,987.5C 906.256,987.825 890.089,987.491 874,986.5C 859.044,929.385 843.711,872.385 828,815.5C 827.5,872.832 827.333,930.166 827.5,987.5C 808.833,987.5 790.167,987.5 771.5,987.5 Z"/></g>
<g><path style="opacity:1" fill="#fdaa00" d="M 1287.5,984.5 C 1262.52,986.491 1237.19,987.157 1211.5,986.5C 1206.55,971.144 1202.22,955.478 1198.5,939.5C 1176.17,939.5 1153.83,939.5 1131.5,939.5C 1127.24,955.273 1122.58,970.94 1117.5,986.5C 1097.18,987.5 1076.84,987.833 1056.5,987.5C 1081.19,905.414 1106.19,823.414 1131.5,741.5C 1158.41,741.172 1185.24,741.505 1212,742.5C 1237.48,823.094 1262.64,903.76 1287.5,984.5 Z"/></g>
<g><path style="opacity:1" fill="#feab00" d="M 1492.5,789.5 C 1457.83,835.833 1423.17,882.167 1388.5,928.5C 1423.43,929.499 1459.09,929.833 1495.5,929.5C 1495.5,948.5 1495.5,967.5 1495.5,986.5C 1427.83,986.5 1360.17,986.5 1292.5,986.5C 1292.5,970.833 1292.5,955.167 1292.5,939.5C 1328.17,892.833 1363.83,846.167 1399.5,799.5C 1367.24,798.501 1334.24,798.167 1300.5,798.5C 1300.5,779.833 1300.5,761.167 1300.5,742.5C 1364.5,742.5 1428.5,742.5 1492.5,742.5C 1492.5,758.167 1492.5,773.833 1492.5,789.5 Z"/></g>
<g><path style="opacity:1" fill="#6a470e" d="M 1492.5,789.5 C 1492.5,773.833 1492.5,758.167 1492.5,742.5C 1428.5,742.5 1364.5,742.5 1300.5,742.5C 1300.5,761.167 1300.5,779.833 1300.5,798.5C 1334.24,798.167 1367.24,798.501 1399.5,799.5C 1366.17,799.5 1332.83,799.5 1299.5,799.5C 1299.5,780.167 1299.5,760.833 1299.5,741.5C 1364.17,741.5 1428.83,741.5 1493.5,741.5C 1493.83,757.675 1493.5,773.675 1492.5,789.5 Z"/></g>
<g><path style="opacity:1" fill="#885b0a" d="M 1841.5,742.5 C 1817.83,742.5 1794.17,742.5 1770.5,742.5C 1770.5,823.833 1770.5,905.167 1770.5,986.5C 1770.5,986.833 1770.5,987.167 1770.5,987.5C 1769.5,905.668 1769.17,823.668 1769.5,741.5C 1793.67,741.169 1817.67,741.502 1841.5,742.5 Z"/></g>
<g><path style="opacity:1" fill="#feab00" d="M 1841.5,742.5 C 1862.99,776.138 1884.49,809.805 1906,843.5C 1911.84,853.183 1917.18,863.183 1922,873.5C 1920.28,857.914 1919.12,842.247 1918.5,826.5C 1918.5,798.5 1918.5,770.5 1918.5,742.5C 1938.83,742.5 1959.17,742.5 1979.5,742.5C 1979.5,824.167 1979.5,905.833 1979.5,987.5C 1958.82,987.833 1938.16,987.5 1917.5,986.5C 1894.53,949.034 1871.36,911.701 1848,874.5C 1840.47,860.779 1833.47,846.779 1827,832.5C 1828.81,840.677 1829.97,849.011 1830.5,857.5C 1830.5,900.5 1830.5,943.5 1830.5,986.5C 1810.5,986.5 1790.5,986.5 1770.5,986.5C 1770.5,905.167 1770.5,823.833 1770.5,742.5C 1794.17,742.5 1817.83,742.5 1841.5,742.5 Z"/></g>
<g><path style="opacity:1" fill="#55390f" d="M 1979.5,987.5 C 1979.5,905.833 1979.5,824.167 1979.5,742.5C 1959.17,742.5 1938.83,742.5 1918.5,742.5C 1918.5,770.5 1918.5,798.5 1918.5,826.5C 1917.5,798.338 1917.17,770.005 1917.5,741.5C 1938.5,741.5 1959.5,741.5 1980.5,741.5C 1980.83,823.668 1980.5,905.668 1979.5,987.5 Z"/></g>
<g><path style="opacity:1" fill="#fdaa00" d="M 2229.5,984.5 C 2204.52,986.491 2179.19,987.157 2153.5,986.5C 2148.53,970.979 2144.2,955.313 2140.5,939.5C 2118.17,939.5 2095.83,939.5 2073.5,939.5C 2069.24,955.288 2064.57,970.955 2059.5,986.5C 2039.18,987.5 2018.84,987.833 1998.5,987.5C 2023.5,905.506 2048.5,823.506 2073.5,741.5C 2100.41,741.172 2127.24,741.505 2154,742.5C 2179.48,823.094 2204.64,903.76 2229.5,984.5 Z"/></g>
<g><path style="opacity:1" fill="#885b0a" d="M 2734.5,742.5 C 2675.5,742.5 2616.5,742.5 2557.5,742.5C 2557.5,824.167 2557.5,905.833 2557.5,987.5C 2556.5,905.668 2556.17,823.668 2556.5,741.5C 2616,741.168 2675.34,741.501 2734.5,742.5 Z"/></g>
<g><path style="opacity:1" fill="#feab00" d="M 2734.5,742.5 C 2734.5,761.833 2734.5,781.167 2734.5,800.5C 2699.83,800.5 2665.17,800.5 2630.5,800.5C 2630.5,813.833 2630.5,827.167 2630.5,840.5C 2657.17,840.5 2683.83,840.5 2710.5,840.5C 2710.5,858.833 2710.5,877.167 2710.5,895.5C 2683.83,895.5 2657.17,895.5 2630.5,895.5C 2630.5,926.167 2630.5,956.833 2630.5,987.5C 2606.17,987.5 2581.83,987.5 2557.5,987.5C 2557.5,905.833 2557.5,824.167 2557.5,742.5C 2616.5,742.5 2675.5,742.5 2734.5,742.5 Z"/></g>
<g><path style="opacity:1" fill="#130c15" d="M 1618.5,794.5 C 1635.3,791.812 1647.13,798.146 1654,813.5C 1656.62,819.569 1658.29,825.902 1659,832.5C 1661.72,857.992 1660.72,883.326 1656,908.5C 1650.72,929.1 1637.55,937.6 1616.5,934C 1608.08,930.585 1601.92,924.752 1598,916.5C 1594.78,908.084 1592.45,899.418 1591,890.5C 1590.33,874.5 1590.33,858.5 1591,842.5C 1592.27,828.761 1596.6,816.094 1604,804.5C 1608.21,800.103 1613.04,796.769 1618.5,794.5 Z"/></g>
<g><path style="opacity:1" fill="#160f15" d="M 1183.5,882.5 C 1171.21,884.48 1158.54,885.147 1145.5,884.5C 1151.56,861.347 1158.06,838.347 1165,815.5C 1171.23,837.849 1177.4,860.182 1183.5,882.5 Z"/></g>
<g><path style="opacity:1" fill="#160f15" d="M 2125.5,882.5 C 2113.21,884.48 2100.54,885.147 2087.5,884.5C 2093.56,861.397 2100.06,838.397 2107,815.5C 2113.23,837.799 2119.39,860.132 2125.5,882.5 Z"/></g>
<g><path style="opacity:1" fill="#160f15" d="M 647.5,883.5 C 635.011,884.495 622.344,884.829 609.5,884.5C 615.233,861.227 621.733,838.227 629,815.5C 635.275,838.156 641.442,860.823 647.5,883.5 Z"/></g>
<g><path style="opacity:1" fill="#c18105" d="M 1830.5,857.5 C 1831.5,900.663 1831.83,943.997 1831.5,987.5C 1811.17,987.5 1790.83,987.5 1770.5,987.5C 1770.5,987.167 1770.5,986.833 1770.5,986.5C 1790.5,986.5 1810.5,986.5 1830.5,986.5C 1830.5,943.5 1830.5,900.5 1830.5,857.5 Z"/></g>
<g><path style="opacity:1" fill="#513610" d="M 647.5,883.5 C 648.043,883.56 648.376,883.893 648.5,884.5C 635.339,885.825 622.339,885.825 609.5,884.5C 622.344,884.829 635.011,884.495 647.5,883.5 Z"/></g>
<g><path style="opacity:1" fill="#513610" d="M 1183.5,882.5 C 1184.4,883.209 1184.74,884.209 1184.5,885.5C 1171.32,885.829 1158.32,885.495 1145.5,884.5C 1158.54,885.147 1171.21,884.48 1183.5,882.5 Z"/></g>
<g><path style="opacity:1" fill="#513610" d="M 2125.5,882.5 C 2126.4,883.209 2126.74,884.209 2126.5,885.5C 2113.32,885.829 2100.32,885.495 2087.5,884.5C 2100.54,885.147 2113.21,884.48 2125.5,882.5 Z"/></g>
<g><path style="opacity:1" fill="#feab00" d="M 2732.5,921.5 C 2755.17,921.5 2777.83,921.5 2800.5,921.5C 2800.5,943.5 2800.5,965.5 2800.5,987.5C 2777.83,987.5 2755.17,987.5 2732.5,987.5C 2732.5,965.5 2732.5,943.5 2732.5,921.5 Z"/></g>
<g><path style="opacity:1" fill="#704b0e" d="M 1388.5,928.5 C 1424.5,928.5 1460.5,928.5 1496.5,928.5C 1496.83,948.34 1496.5,968.007 1495.5,987.5C 1495.5,987.167 1495.5,986.833 1495.5,986.5C 1495.5,967.5 1495.5,948.5 1495.5,929.5C 1459.09,929.833 1423.43,929.499 1388.5,928.5 Z"/></g>
<g><path style="opacity:1" fill="#c38305" d="M 751.5,985.5 C 752.043,985.56 752.376,985.893 752.5,986.5C 726.67,987.829 701.003,987.829 675.5,986.5C 701.005,986.831 726.339,986.498 751.5,985.5 Z"/></g>
<g><path style="opacity:1" fill="#c38305" d="M 1287.5,984.5 C 1288.4,985.209 1288.74,986.209 1288.5,987.5C 1262.66,987.831 1236.99,987.498 1211.5,986.5C 1237.19,987.157 1262.52,986.491 1287.5,984.5 Z"/></g>
<g><path style="opacity:1" fill="#ba7d06" d="M 1292.5,939.5 C 1292.5,955.167 1292.5,970.833 1292.5,986.5C 1360.17,986.5 1427.83,986.5 1495.5,986.5C 1495.5,986.833 1495.5,987.167 1495.5,987.5C 1427.5,987.5 1359.5,987.5 1291.5,987.5C 1291.17,971.325 1291.5,955.325 1292.5,939.5 Z"/></g>
<g><path style="opacity:1" fill="#c38305" d="M 2229.5,984.5 C 2230.4,985.209 2230.74,986.209 2230.5,987.5C 2204.66,987.831 2178.99,987.498 2153.5,986.5C 2179.19,987.157 2204.52,986.491 2229.5,984.5 Z"/></g>
<g><path style="opacity:1" fill="#130c14" d="M 484.5,1258.5 C 563.5,1258.5 642.5,1258.5 721.5,1258.5C 721.667,1530.83 721.5,1803.17 721,2075.5C 657.673,2129.99 600.84,2190.32 550.5,2256.5C 527.714,2222.86 505.88,2188.52 485,2153.5C 484.5,1855.17 484.333,1556.83 484.5,1258.5 Z"/></g>
<g><path style="opacity:1" fill="#130c14" d="M 961.5,1258.5 C 1034.17,1258.5 1106.83,1258.5 1179.5,1258.5C 1179.67,1357.5 1179.5,1456.5 1179,1555.5C 1127.38,1530.77 1075.22,1507.27 1022.5,1485C 1002.55,1476.41 982.221,1468.91 961.5,1462.5C 961.5,1394.5 961.5,1326.5 961.5,1258.5 Z"/></g>
<g><path style="opacity:1" fill="#130c14" d="M 1418.5,1258.5 C 1495.83,1258.5 1573.17,1258.5 1650.5,1258.5C 1650.83,1301.84 1650.5,1345.17 1649.5,1388.5C 1613.27,1399.85 1577.61,1412.69 1542.5,1427C 1501.04,1444.43 1460.04,1462.93 1419.5,1482.5C 1418.5,1407.84 1418.17,1333.17 1418.5,1258.5 Z"/></g>
<g><path style="opacity:1" fill="#130c14" d="M 1889.5,1258.5 C 1966.83,1258.5 2044.17,1258.5 2121.5,1258.5C 2121.83,1325.5 2121.5,1392.5 2120.5,1459.5C 2061.94,1431.22 2001.61,1407.39 1939.5,1388C 1923.04,1383.22 1906.37,1379.38 1889.5,1376.5C 1889.5,1337.17 1889.5,1297.83 1889.5,1258.5 Z"/></g>
<g><path style="opacity:1" fill="#130c14" d="M 2360.5,1258.5 C 2433.5,1258.5 2506.5,1258.5 2579.5,1258.5C 2579.5,1333.83 2579.5,1409.17 2579.5,1484.5C 2515.66,1511.17 2452,1538.34 2388.5,1566C 2379.43,1569.59 2370.09,1570.43 2360.5,1568.5C 2360.5,1465.17 2360.5,1361.83 2360.5,1258.5 Z"/></g>
<g><path style="opacity:1" fill="#130c14" d="M 2818.5,1258.5 C 2897.5,1258.5 2976.5,1258.5 3055.5,1258.5C 3055.67,1556.83 3055.5,1855.17 3055,2153.5C 3034.82,2187.83 3013.66,2221.5 2991.5,2254.5C 2940.15,2188.3 2882.65,2127.64 2819,2072.5C 2818.33,1953.5 2818.33,1834.5 2819,1715.5C 2838.03,1655.54 2842.7,1594.54 2833,1532.5C 2829.91,1519.24 2825.25,1506.57 2819,1494.5C 2818.5,1415.83 2818.33,1337.17 2818.5,1258.5 Z"/></g>
<g><path style="opacity:1" fill="#140c15" d="M 2180.5,2958.5 C 2179.83,2960.5 2179.17,2962.5 2178.5,2964.5C 2174.27,2956.37 2169.77,2948.37 2165,2940.5C 2154.02,2973.8 2146.02,3007.8 2141,3042.5C 2140.67,3055.5 2140.33,3068.5 2140,3081.5C 2131.59,3074.05 2123.09,3066.72 2114.5,3059.5C 2108.59,3109.18 2106.92,3159.01 2109.5,3209C 2109.58,3216.88 2109.08,3224.72 2108,3232.5C 2099.69,3258.45 2087.69,3282.45 2072,3304.5C 2065.04,3319.41 2058.38,3334.41 2052,3349.5C 2046.03,3335.56 2039.53,3321.89 2032.5,3308.5C 2009.86,3327.78 1997.19,3352.44 1994.5,3382.5C 1982.78,3378.14 1971.45,3372.97 1960.5,3367C 1933.83,3360.31 1919.33,3370.81 1917,3398.5C 1915.75,3401.17 1913.92,3403.34 1911.5,3405C 1888.13,3416.54 1863.46,3421.54 1837.5,3420C 1819.38,3416.86 1805.21,3407.7 1795,3392.5C 1777.33,3416.17 1753.83,3425.34 1724.5,3420C 1707.56,3417.47 1691.56,3412.13 1676.5,3404C 1674.44,3401.49 1672.94,3398.66 1672,3395.5C 1669.18,3370.85 1655.68,3361.02 1631.5,3366C 1623.71,3369.39 1616.05,3373.06 1608.5,3377C 1604.49,3378.17 1600.49,3379.33 1596.5,3380.5C 1592.23,3365.86 1587.06,3351.52 1581,3337.5C 1573.82,3326.48 1566.16,3315.81 1558,3305.5C 1550.84,3320.48 1543.68,3335.48 1536.5,3350.5C 1527.21,3329.93 1517.38,3309.59 1507,3289.5C 1497.22,3268.83 1488.22,3247.83 1480,3226.5C 1479.36,3171.5 1477.69,3116.5 1475,3061.5C 1474.28,3060.55 1473.45,3060.38 1472.5,3061C 1465.28,3067.85 1457.78,3074.35 1450,3080.5C 1450.48,3058.98 1448.81,3037.65 1445,3016.5C 1439.72,2990.72 1432.89,2965.38 1424.5,2940.5C 1419.33,2949.5 1414.17,2958.5 1409,2967.5C 1409.5,2951.58 1407.83,2935.92 1404,2920.5C 1388.79,2868.55 1361.29,2824.38 1321.5,2788C 1300.79,2769.63 1279.79,2751.63 1258.5,2734C 1230.5,2713 1202.5,2692 1174.5,2671C 1117.76,2620.9 1074.93,2560.73 1046,2490.5C 1010.03,2399.31 990.694,2304.64 988,2206.5C 987.347,2167.48 987.68,2128.48 989,2089.5C 984.101,2079.6 978.768,2069.93 973,2060.5C 947.341,2021.8 923.675,1981.8 902,1940.5C 862.7,1866.23 826.367,1790.57 793,1713.5C 768.96,1648.91 765.293,1583.24 782,1516.5C 791.919,1484.58 813.419,1466.41 846.5,1462C 856.866,1461.27 867.199,1461.61 877.5,1463C 913.13,1469.21 947.796,1478.88 981.5,1492C 1051.75,1521.29 1121.42,1551.96 1190.5,1584C 1213.48,1591.16 1235.82,1589.49 1257.5,1579C 1345.13,1538.67 1432.8,1498.34 1520.5,1458C 1567.42,1437.36 1615.42,1419.69 1664.5,1405C 1771.35,1377.76 1876.35,1383.43 1979.5,1422C 2021.07,1437.62 2062.07,1454.62 2102.5,1473C 2173.81,1507.15 2245.47,1540.49 2317.5,1573C 2332.65,1580.07 2348.31,1585.74 2364.5,1590C 2375.48,1591.27 2386.15,1589.94 2396.5,1586C 2474.34,1552.28 2552.34,1518.94 2630.5,1486C 2668.71,1468.89 2708.71,1461.56 2750.5,1464C 2779.71,1469.87 2798.88,1487.04 2808,1515.5C 2818.49,1549.76 2821.49,1584.76 2817,1620.5C 2812.79,1665.25 2801.79,1708.25 2784,1749.5C 2754.92,1809.32 2725.59,1868.99 2696,1928.5C 2673.79,1971.94 2649.79,2014.27 2624,2055.5C 2615.33,2066.18 2607.66,2077.51 2601,2089.5C 2608.52,2187.59 2601.52,2284.59 2580,2380.5C 2564.58,2447.1 2539.58,2509.77 2505,2568.5C 2481.29,2606.23 2452.45,2639.73 2418.5,2669C 2379.31,2697.18 2340.98,2726.52 2303.5,2757C 2278,2779.83 2253.83,2804 2231,2829.5C 2201.93,2867.65 2185.1,2910.65 2180.5,2958.5 Z"/></g>
<g><path style="opacity:1" fill="#fdab00" d="M 1785.5,1445.5 C 1796.93,1445.08 1808.26,1445.92 1819.5,1448C 1899.62,1465.93 1978.28,1488.93 2055.5,1517C 2043.74,1518.54 2032.07,1520.54 2020.5,1523C 2011.14,1525.09 2003.31,1529.59 1997,1536.5C 1996.07,1542.37 1997.9,1547.21 2002.5,1551C 2027.02,1565.81 2053.68,1572.98 2082.5,1572.5C 2105.1,1572.19 2127.1,1568.35 2148.5,1561C 2151.17,1560.33 2153.83,1560.33 2156.5,1561C 2211.38,1586.27 2266.38,1611.27 2321.5,1636C 2360.52,1649.94 2398.86,1648.28 2436.5,1631C 2506.52,1597.22 2577.85,1566.55 2650.5,1539C 2672.81,1532.84 2695.14,1526.84 2717.5,1521C 2720.5,1520.33 2723.5,1520.33 2726.5,1521C 2679.26,1540.78 2634.93,1565.44 2593.5,1595C 2545.86,1629.62 2500.86,1667.62 2458.5,1709C 2472.59,1712.2 2486.26,1716.87 2499.5,1723C 2487.5,1730.33 2475.5,1737.67 2463.5,1745C 2481.6,1749.43 2499.6,1753.93 2517.5,1758.5C 2497.66,1770.25 2477.66,1781.75 2457.5,1793C 2473.65,1799.72 2489.99,1806.05 2506.5,1812C 2488.21,1815.91 2470.21,1820.74 2452.5,1826.5C 2485.27,1899.72 2514.44,1974.38 2540,2050.5C 2554.36,2154.85 2550.36,2258.52 2528,2361.5C 2514.83,2419.18 2493.83,2473.84 2465,2525.5C 2435.31,2574.2 2397.48,2615.7 2351.5,2650C 2299.03,2682.44 2251.87,2721.61 2210,2767.5C 2194.7,2785.45 2180.36,2804.11 2167,2823.5C 2162.74,2815.96 2158.24,2808.63 2153.5,2801.5C 2135.1,2857.19 2116.6,2912.86 2098,2968.5C 2089.65,2960.65 2081.15,2952.98 2072.5,2945.5C 2071.75,2946.38 2071.25,2947.38 2071,2948.5C 2064.44,3024.13 2058.44,3099.8 2053,3175.5C 2052.12,3188.89 2052.62,3202.22 2054.5,3215.5C 2053.81,3221.7 2050.81,3226.54 2045.5,3230C 2017.27,3249.15 1991.27,3271.15 1967.5,3296C 1960.61,3302.11 1952.61,3306.11 1943.5,3308C 1918.71,3308.65 1898.54,3318.48 1883,3337.5C 1877.45,3345.45 1872.28,3353.61 1867.5,3362C 1862.6,3365.22 1857.27,3366.22 1851.5,3365C 1833.89,3359.8 1816.56,3353.8 1799.5,3347C 1796.17,3346.33 1792.83,3346.33 1789.5,3347C 1773.48,3352.67 1757.48,3358.34 1741.5,3364C 1732.34,3366.28 1724.84,3363.78 1719,3356.5C 1710.25,3340.76 1698.42,3327.92 1683.5,3318C 1666.76,3310.05 1649.09,3306.05 1630.5,3306C 1629.17,3305.33 1627.83,3304.67 1626.5,3304C 1613.97,3283.14 1597.64,3265.8 1577.5,3252C 1570.67,3247.42 1563.67,3243.08 1556.5,3239C 1544.4,3230.64 1537.57,3219.14 1536,3204.5C 1534.1,3138.07 1530.44,3071.74 1525,3005.5C 1523.46,2986.27 1521.29,2967.1 1518.5,2948C 1518.17,2947.17 1517.83,2946.33 1517.5,2945.5C 1508.83,2952.83 1500.17,2960.17 1491.5,2967.5C 1473.43,2912.14 1455.27,2856.8 1437,2801.5C 1436.33,2800.17 1435.67,2800.17 1435,2801.5C 1431.33,2808.17 1427.67,2814.83 1424,2821.5C 1423.28,2822.45 1422.45,2822.62 1421.5,2822C 1401.21,2791.36 1377.55,2763.36 1350.5,2738C 1329.13,2718.96 1307.46,2700.29 1285.5,2682C 1264.01,2666.42 1242.34,2651.09 1220.5,2636C 1160.81,2587.51 1117.64,2527.01 1091,2454.5C 1053.2,2349.18 1037.2,2240.51 1043,2128.5C 1044.56,2108.16 1046.23,2087.82 1048,2067.5C 1049.77,2055.62 1052.44,2043.96 1056,2032.5C 1081.8,1962.58 1108.97,1893.24 1137.5,1824.5C 1119.71,1820.47 1102.04,1815.97 1084.5,1811C 1100.88,1804.93 1117.22,1798.76 1133.5,1792.5C 1113.66,1780.75 1093.66,1769.25 1073.5,1758C 1091.09,1753.18 1108.76,1748.52 1126.5,1744C 1114.83,1736.5 1103.17,1729 1091.5,1721.5C 1103.61,1716.85 1115.95,1712.68 1128.5,1709C 1128.96,1708.59 1129.29,1708.09 1129.5,1707.5C 1123.4,1699.23 1116.73,1691.39 1109.5,1684C 1035.92,1619.69 955.59,1565.02 868.5,1520C 879.253,1520.79 889.919,1522.46 900.5,1525C 944.758,1537.64 987.758,1553.64 1029.5,1573C 1077.62,1594.48 1125.62,1616.15 1173.5,1638C 1207.43,1649.15 1240.76,1647.49 1273.5,1633C 1326.62,1609.27 1379.62,1585.27 1432.5,1561C 1441.75,1560.96 1450.75,1562.63 1459.5,1566C 1495.62,1575.77 1531.29,1574.44 1566.5,1562C 1577.68,1558.51 1586.51,1552.01 1593,1542.5C 1594.83,1534.33 1591.66,1529.17 1583.5,1527C 1568.96,1522.96 1554.29,1519.29 1539.5,1516C 1538.17,1515.33 1538.17,1514.67 1539.5,1514C 1563.75,1505.71 1588.08,1497.71 1612.5,1490C 1670.23,1474.98 1727.9,1460.15 1785.5,1445.5 Z"/></g>
<g><path style="opacity:1" fill="#140d14" d="M 1685.5,1481.5 C 1693.55,1481.23 1701.55,1481.73 1709.5,1483C 1720.17,1487 1730.83,1491 1741.5,1495C 1751.38,1497.58 1761.38,1499.58 1771.5,1501C 1776.42,1502.37 1780.58,1504.87 1784,1508.5C 1784.79,1511.63 1784.46,1514.63 1783,1517.5C 1769.54,1530.63 1755.21,1542.63 1740,1553.5C 1738.56,1555.27 1737.56,1557.27 1737,1559.5C 1737.4,1568.6 1735.73,1577.26 1732,1585.5C 1728.26,1589.26 1723.76,1590.43 1718.5,1589C 1703.7,1580.52 1689.87,1570.68 1677,1559.5C 1674.58,1554.83 1675.75,1551.33 1680.5,1549C 1693.33,1546.61 1706,1543.61 1718.5,1540C 1722.17,1538.17 1725.83,1536.33 1729.5,1534.5C 1730.76,1532.65 1730.76,1530.81 1729.5,1529C 1709.83,1521.54 1689.83,1515.2 1669.5,1510C 1659.12,1506 1657.45,1500 1664.5,1492C 1671.06,1487.39 1678.06,1483.89 1685.5,1481.5 Z"/></g>
<g><path style="opacity:1" fill="#140d14" d="M 1885.5,1482.5 C 1897.92,1482.4 1909.92,1484.57 1921.5,1489C 1925.75,1491.85 1929.09,1495.51 1931.5,1500C 1928.46,1504.7 1924.46,1508.37 1919.5,1511C 1907.59,1514.64 1895.59,1517.98 1883.5,1521C 1875.75,1523.25 1868.25,1526.08 1861,1529.5C 1859.86,1532.53 1860.69,1534.69 1863.5,1536C 1879.25,1542.69 1895.58,1547.35 1912.5,1550C 1915.83,1552.68 1916.33,1555.85 1914,1559.5C 1901.75,1578.04 1884.58,1587.87 1862.5,1589C 1859.62,1587.75 1857.79,1585.58 1857,1582.5C 1855.8,1576.25 1855.13,1569.91 1855,1563.5C 1853.86,1559.89 1852.19,1556.55 1850,1553.5C 1842.07,1546.23 1833.57,1539.73 1824.5,1534C 1817.93,1528.1 1812.09,1521.6 1807,1514.5C 1805.36,1509.57 1806.86,1506.07 1811.5,1504C 1820.81,1501.67 1830.15,1499.34 1839.5,1497C 1854.84,1491.81 1870.18,1486.98 1885.5,1482.5 Z"/></g>
<g><path style="opacity:1" fill="#f9a800" d="M 2551.5,1823.5 C 2555.65,1824.65 2559.98,1824.81 2564.5,1824C 2563.96,1823.28 2563.29,1822.78 2562.5,1822.5C 2553.09,1813.94 2542.42,1807.11 2530.5,1802C 2517.79,1797.32 2505.12,1792.65 2492.5,1788C 2500.71,1780.59 2510.38,1776.26 2521.5,1775C 2548.9,1773.99 2576.07,1776.15 2603,1781.5C 2603.83,1781.17 2604.67,1780.83 2605.5,1780.5C 2588.2,1764.52 2567.87,1754.35 2544.5,1750C 2530.31,1746.77 2515.98,1744.44 2501.5,1743C 2523.59,1729.19 2547.59,1720.52 2573.5,1717C 2585.1,1715.29 2596.77,1714.45 2608.5,1714.5C 2612.85,1714.67 2617.18,1714.5 2621.5,1714C 2620.26,1713.21 2618.92,1712.71 2617.5,1712.5C 2601.23,1708.74 2584.73,1707.07 2568,1707.5C 2543.15,1708.44 2518.32,1709.27 2493.5,1710C 2519.62,1679.54 2548.62,1652.21 2580.5,1628C 2634.8,1589.17 2691.14,1553.34 2749.5,1520.5C 2758.55,1535.84 2763.05,1552.5 2763,1570.5C 2766.58,1619.78 2758.91,1667.11 2740,1712.5C 2713.26,1769.32 2685.93,1825.98 2658,1882.5C 2638.02,1921.81 2617.02,1960.47 2595,1998.5C 2587.12,2012.37 2578.45,2025.71 2569,2038.5C 2562.94,2046.4 2555.77,2053.06 2547.5,2058.5C 2546.91,2058.29 2546.41,2057.96 2546,2057.5C 2534.49,1997.14 2518.16,1938.14 2497,1880.5C 2490.71,1865.26 2483.88,1850.26 2476.5,1835.5C 2479.49,1833.21 2482.83,1831.38 2486.5,1830C 2507.73,1824.08 2529.4,1821.91 2551.5,1823.5 Z"/></g>
<g><path style="opacity:1" fill="#f9a800" d="M 972.5,1716.5 C 971.527,1716.99 970.527,1717.49 969.5,1718C 976.158,1718.5 982.825,1718.67 989.5,1718.5C 1014.05,1718.25 1038.05,1721.75 1061.5,1729C 1070.06,1731.95 1078.06,1735.95 1085.5,1741C 1066.56,1743.74 1047.89,1747.74 1029.5,1753C 1013.55,1758.63 999.554,1767.3 987.5,1779C 1000.7,1776.5 1014.03,1774.5 1027.5,1773C 1053.4,1769.61 1077.74,1774.11 1100.5,1786.5C 1079.23,1792.8 1058.9,1801.3 1039.5,1812C 1034.36,1815.64 1029.36,1819.48 1024.5,1823.5C 1025,1823.83 1025.5,1824.17 1026,1824.5C 1048.58,1821.42 1071.08,1821.92 1093.5,1826C 1100.88,1827.96 1107.88,1830.79 1114.5,1834.5C 1094.09,1876.23 1077.92,1919.56 1066,1964.5C 1058.12,1996.46 1050.45,2028.46 1043,2060.5C 1033.25,2050.76 1024.25,2040.42 1016,2029.5C 958.428,1931.37 905.761,1830.37 858,1726.5C 832.271,1673.04 822.604,1616.71 829,1557.5C 829.609,1548.29 831.275,1539.29 834,1530.5C 837.277,1524.89 842.11,1523.06 848.5,1525C 920.965,1562.55 988.298,1607.55 1050.5,1660C 1066.6,1675.1 1081.6,1691.1 1095.5,1708C 1067.48,1708.15 1039.48,1708.81 1011.5,1710C 998.379,1711.52 985.379,1713.69 972.5,1716.5 Z"/></g>
<g><path style="opacity:1" fill="#130c15" d="M 853.5,1552.5 C 861.736,1553.61 869.403,1556.44 876.5,1561C 940.81,1601.32 1003.48,1643.99 1064.5,1689C 1068.47,1691.96 1072.13,1695.3 1075.5,1699C 1031.28,1698.18 987.613,1702.51 944.5,1712C 937.266,1714.08 930.266,1716.74 923.5,1720C 932.268,1722.74 941.268,1724.41 950.5,1725C 977.871,1725.72 1005.2,1727.05 1032.5,1729C 1042.98,1730.45 1052.98,1733.45 1062.5,1738C 1031.97,1742.95 1003.64,1753.62 977.5,1770C 969.413,1776.09 962.746,1783.42 957.5,1792C 974.322,1788.47 991.322,1785.47 1008.5,1783C 1030.25,1779.78 1051.58,1781.45 1072.5,1788C 1052.92,1794.19 1034.58,1802.85 1017.5,1814C 1012.33,1817.83 1007.83,1822.33 1004,1827.5C 1001.78,1830.54 1000.28,1833.87 999.5,1837.5C 1021.16,1836.7 1042.83,1836.53 1064.5,1837C 1074.37,1837.79 1083.87,1839.95 1093,1843.5C 1083.07,1863.88 1072.74,1884.21 1062,1904.5C 1046.57,1935.12 1034.91,1967.12 1027,2000.5C 1020.97,1994.8 1015.3,1988.8 1010,1982.5C 957.338,1894.85 910.671,1803.85 870,1709.5C 858.699,1678.35 851.032,1646.35 847,1613.5C 844.463,1595.34 845.129,1577.34 849,1559.5C 850.012,1556.8 851.512,1554.46 853.5,1552.5 Z"/></g>
<g><path style="opacity:1" fill="#130c14" d="M 2590.5,1835.5 C 2593.9,1835.82 2597.23,1835.49 2600.5,1834.5C 2600.38,1833.89 2600.04,1833.56 2599.5,1833.5C 2598.21,1829.04 2595.88,1825.21 2592.5,1822C 2581.35,1812.42 2568.68,1805.42 2554.5,1801C 2543.04,1797.43 2531.71,1793.6 2520.5,1789.5C 2526.84,1786.73 2533.51,1784.89 2540.5,1784C 2574.38,1783.04 2607.72,1786.88 2640.5,1795.5C 2640.83,1795.17 2641.17,1794.83 2641.5,1794.5C 2630.19,1778.03 2615.19,1766.2 2596.5,1759C 2574.56,1749.91 2551.89,1743.24 2528.5,1739C 2539.26,1733.81 2550.59,1730.48 2562.5,1729C 2587.42,1726.09 2612.42,1724.09 2637.5,1723C 2648.2,1721.96 2658.87,1720.63 2669.5,1719C 2671.38,1718.78 2673.05,1718.12 2674.5,1717C 2660.75,1710.96 2646.42,1706.96 2631.5,1705C 2592.31,1700.27 2552.98,1698.27 2513.5,1699C 2543.64,1676.76 2574.64,1655.76 2606.5,1636C 2634.5,1618.67 2662.5,1601.33 2690.5,1584C 2703.26,1576.23 2716.26,1568.9 2729.5,1562C 2732.5,1561.33 2735.5,1561.33 2738.5,1562C 2740.05,1563.21 2741.22,1564.71 2742,1566.5C 2743.16,1570.8 2744.16,1575.13 2745,1579.5C 2745.85,1626.57 2738.19,1672.23 2722,1716.5C 2681.43,1812.29 2634.1,1904.29 2580,1992.5C 2574.9,1998.36 2569.56,2004.02 2564,2009.5C 2559.32,1986.43 2552.32,1964.1 2543,1942.5C 2528.97,1911.72 2513.8,1881.55 2497.5,1852C 2509.72,1846.78 2522.39,1843.11 2535.5,1841C 2553.71,1837.85 2572.04,1836.02 2590.5,1835.5 Z"/></g>
<g><path style="opacity:1" fill="#150d15" d="M 1596.5,1579.5 C 1615.47,1579.07 1634.14,1581.24 1652.5,1586C 1633.1,1599.71 1612.43,1611.37 1590.5,1621C 1582.95,1623.74 1575.28,1626.07 1567.5,1628C 1551.61,1631.69 1545.77,1625.86 1550,1610.5C 1555.79,1601.05 1563.29,1593.21 1572.5,1587C 1580.4,1583.75 1588.4,1581.25 1596.5,1579.5 Z"/></g>
<g><path style="opacity:1" fill="#150d15" d="M 1964.5,1580.5 C 1985.51,1577.9 2005.51,1581.06 2024.5,1590C 2036.63,1598.43 2042.79,1609.93 2043,1624.5C 2041.36,1626.81 2039.2,1628.31 2036.5,1629C 2023.54,1629.46 2011.21,1626.8 1999.5,1621C 1978.18,1611 1957.84,1599.33 1938.5,1586C 1947.27,1584.04 1955.94,1582.21 1964.5,1580.5 Z"/></g>
<g><path style="opacity:1" fill="#140d14" d="M 2105.5,1590.5 C 2110.84,1590.33 2116.18,1590.5 2121.5,1591C 2143.91,1599.69 2165.91,1609.36 2187.5,1620C 2192.81,1623.99 2196.64,1629.16 2199,1635.5C 2203.32,1647.69 2203.66,1660.02 2200,1672.5C 2198.28,1677.61 2195.78,1682.28 2192.5,1686.5C 2190.28,1685.08 2188.78,1683.08 2188,1680.5C 2186.86,1673.73 2184.52,1667.4 2181,1661.5C 2176.2,1655.7 2171.03,1650.2 2165.5,1645C 2144.66,1631.41 2123.99,1617.58 2103.5,1603.5C 2098.91,1598.21 2099.58,1593.88 2105.5,1590.5 Z"/></g>
<g><path style="opacity:1" fill="#150d15" d="M 1469.5,1590.5 C 1476.8,1590.58 1483.8,1592.08 1490.5,1595C 1486.89,1600.88 1482.55,1606.22 1477.5,1611C 1458.83,1623.33 1440.17,1635.67 1421.5,1648C 1410.39,1657.72 1403.55,1669.89 1401,1684.5C 1400.16,1686.01 1399,1686.51 1397.5,1686C 1385.52,1665.44 1385.68,1644.94 1398,1624.5C 1406.6,1618.45 1415.77,1613.28 1425.5,1609C 1440.23,1602.71 1454.89,1596.54 1469.5,1590.5 Z"/></g>
<g><path style="opacity:1" fill="#96650a" d="M 1837.5,1647.5 C 1839.61,1646.53 1841.94,1646.2 1844.5,1646.5C 1844.78,1648.41 1844.45,1650.08 1843.5,1651.5C 1843.5,1650.17 1843.5,1648.83 1843.5,1647.5C 1841.5,1647.5 1839.5,1647.5 1837.5,1647.5 Z"/></g>
<g><path style="opacity:1" fill="#6e4a0e" d="M 1752.5,1647.5 C 1750.22,1647.08 1748.55,1647.74 1747.5,1649.5C 1746.6,1648.79 1746.26,1647.79 1746.5,1646.5C 1748.74,1646.21 1750.74,1646.54 1752.5,1647.5 Z"/></g>
<g><path style="opacity:1" fill="#140d14" d="M 1752.5,1647.5 C 1771.18,1650.87 1779.01,1661.87 1776,1680.5C 1766.34,1699.16 1755.67,1717.16 1744,1734.5C 1736.82,1743.25 1727.82,1748.91 1717,1751.5C 1707.21,1750.78 1700.88,1745.78 1698,1736.5C 1697.33,1730.17 1697.33,1723.83 1698,1717.5C 1699.89,1706.74 1702.06,1696.07 1704.5,1685.5C 1712.51,1687.56 1720.51,1689.72 1728.5,1692C 1734.61,1692.91 1740.61,1692.58 1746.5,1691C 1750.3,1687.94 1751.97,1683.94 1751.5,1679C 1750.49,1669.11 1749.16,1659.28 1747.5,1649.5C 1748.55,1647.74 1750.22,1647.08 1752.5,1647.5 Z"/></g>
<g><path style="opacity:1" fill="#150d15" d="M 1837.5,1647.5 C 1839.5,1647.5 1841.5,1647.5 1843.5,1647.5C 1843.5,1648.83 1843.5,1650.17 1843.5,1651.5C 1841.92,1660.45 1840.59,1669.45 1839.5,1678.5C 1839.26,1688.43 1844.1,1693.1 1854,1692.5C 1864.22,1691.28 1874.22,1688.95 1884,1685.5C 1886.22,1688.47 1887.89,1691.8 1889,1695.5C 1894.01,1710.66 1894.68,1726 1891,1741.5C 1887.11,1749.03 1880.94,1752.2 1872.5,1751C 1863.27,1747.47 1855.1,1742.3 1848,1735.5C 1834.36,1717.23 1823.03,1697.56 1814,1676.5C 1813.5,1660.16 1821.34,1650.49 1837.5,1647.5 Z"/></g>
<g><path style="opacity:1" fill="#140d14" d="M 1656.5,1655.5 C 1667.1,1652.99 1675.6,1655.99 1682,1664.5C 1684.03,1667.23 1685.53,1670.23 1686.5,1673.5C 1684.96,1678.08 1682.29,1681.91 1678.5,1685C 1667.67,1692.25 1656.67,1699.25 1645.5,1706C 1624.69,1717.79 1602.36,1723.45 1578.5,1723C 1571.77,1720.45 1568.44,1715.61 1568.5,1708.5C 1568.65,1699.54 1571.65,1691.71 1577.5,1685C 1602.27,1670.6 1628.6,1660.77 1656.5,1655.5 Z"/></g>
<g><path style="opacity:1" fill="#140d15" d="M 1918.5,1655.5 C 1951.89,1658.02 1983.23,1667.52 2012.5,1684C 2024.17,1693.02 2026.67,1704.19 2020,1717.5C 2016.24,1721.13 2011.74,1723.3 2006.5,1724C 1990.56,1725.6 1975.56,1722.6 1961.5,1715C 1943.08,1703.37 1924.58,1691.87 1906,1680.5C 1903.49,1673.61 1904.49,1667.28 1909,1661.5C 1911.84,1658.84 1915.01,1656.84 1918.5,1655.5 Z"/></g>
<g><path style="opacity:1" fill="#140d15" d="M 1483.5,1657.5 C 1493.84,1656.09 1502.68,1659.09 1510,1666.5C 1510.17,1667.67 1510.33,1668.83 1510.5,1670C 1509.55,1673.18 1508.38,1676.34 1507,1679.5C 1488.76,1699.43 1467.92,1715.93 1444.5,1729C 1441.86,1730.44 1439.19,1730.6 1436.5,1729.5C 1429.13,1720.24 1426.63,1709.91 1429,1698.5C 1440.45,1675.88 1458.62,1662.21 1483.5,1657.5 Z"/></g>
<g><path style="opacity:1" fill="#140d14" d="M 2093.5,1658.5 C 2125.1,1657.04 2147.94,1670.38 2162,1698.5C 2165.74,1710.47 2163.57,1721.31 2155.5,1731C 2150.63,1732.19 2146.3,1731.19 2142.5,1728C 2123.71,1713.55 2105.21,1698.71 2087,1683.5C 2077.76,1671.87 2079.93,1663.54 2093.5,1658.5 Z"/></g>
<g><path style="opacity:1" fill="#140d14" d="M 1346.5,1667.5 C 1365.82,1668 1374.99,1678 1374,1697.5C 1373.12,1700.1 1371.62,1702.27 1369.5,1704C 1358.72,1707.77 1349.89,1714.27 1343,1723.5C 1336.13,1732.74 1329.63,1742.24 1323.5,1752C 1318.79,1754.85 1313.79,1757.01 1308.5,1758.5C 1307.98,1755.43 1307.14,1752.43 1306,1749.5C 1305.33,1746.5 1305.33,1743.5 1306,1740.5C 1312.34,1717.12 1322.67,1695.78 1337,1676.5C 1339.68,1672.92 1342.85,1669.92 1346.5,1667.5 Z"/></g>
<g><path style="opacity:1" fill="#150e15" d="M 2236.5,1667.5 C 2242.45,1668.06 2247.61,1670.39 2252,1674.5C 2269.02,1695.7 2280.52,1719.53 2286.5,1746C 2286.4,1750.96 2284.74,1755.29 2281.5,1759C 2277.47,1760.04 2273.8,1759.37 2270.5,1757C 2262.39,1744.56 2253.89,1732.39 2245,1720.5C 2238.27,1712.88 2230.1,1707.38 2220.5,1704C 2213.92,1692.11 2215.92,1681.78 2226.5,1673C 2229.77,1670.87 2233.1,1669.04 2236.5,1667.5 Z"/></g>
<g><path style="opacity:1" fill="#140d14" d="M 1236.5,1673.5 C 1248.14,1671.78 1251.97,1676.44 1248,1687.5C 1245.67,1692.17 1243.33,1696.83 1241,1701.5C 1229.25,1718.68 1217.25,1735.68 1205,1752.5C 1199.23,1763.04 1193.73,1773.71 1188.5,1784.5C 1179.48,1772.27 1175.65,1758.61 1177,1743.5C 1186.8,1723.9 1198.13,1705.23 1211,1687.5C 1217.8,1679.53 1226.3,1674.86 1236.5,1673.5 Z"/></g>
<g><path style="opacity:1" fill="#140d14" d="M 2348.5,1675.5 C 2354.73,1674.94 2360.73,1675.77 2366.5,1678C 2378,1685.5 2387.5,1695 2395,1706.5C 2400.48,1718.12 2406.48,1729.45 2413,1740.5C 2416.55,1750.41 2415.89,1760.08 2411,1769.5C 2408.59,1774.66 2405.92,1779.66 2403,1784.5C 2395.51,1770.17 2387.51,1756.17 2379,1742.5C 2367.84,1727.52 2357.17,1712.18 2347,1696.5C 2345.22,1689.94 2344.05,1683.27 2343.5,1676.5C 2345.41,1676.78 2347.08,1676.45 2348.5,1675.5 Z"/></g>
<g><path style="opacity:1" fill="#5d3f0f" d="M 2617.5,1712.5 C 2618.92,1712.71 2620.26,1713.21 2621.5,1714C 2617.18,1714.5 2612.85,1714.67 2608.5,1714.5C 2611.5,1713.83 2614.5,1713.17 2617.5,1712.5 Z"/></g>
<g><path style="opacity:1" fill="#583b10" d="M 972.5,1716.5 C 978.167,1717.17 983.833,1717.83 989.5,1718.5C 982.825,1718.67 976.158,1718.5 969.5,1718C 970.527,1717.49 971.527,1716.99 972.5,1716.5 Z"/></g>
<g><path style="opacity:1" fill="#150d15" d="M 1497.5,1724.5 C 1506.55,1724.24 1515.55,1724.74 1524.5,1726C 1533.12,1727.76 1536.95,1732.93 1536,1741.5C 1534.53,1746.24 1532.86,1750.91 1531,1755.5C 1526.2,1763.61 1521.03,1771.44 1515.5,1779C 1520.12,1787.74 1524.62,1796.57 1529,1805.5C 1529.82,1807.7 1529.32,1809.53 1527.5,1811C 1500.55,1803.36 1476.22,1790.69 1454.5,1773C 1471.05,1772.12 1481.21,1763.62 1485,1747.5C 1484.02,1736.77 1488.19,1729.11 1497.5,1724.5 Z"/></g>
<g><path style="opacity:1" fill="#140d14" d="M 2073.5,1724.5 C 2078.51,1724.33 2083.51,1724.5 2088.5,1725C 2095.97,1725.15 2101.14,1728.65 2104,1735.5C 2105.24,1744.13 2107.58,1752.47 2111,1760.5C 2113.92,1764.09 2117.42,1766.92 2121.5,1769C 2127.12,1770.82 2132.79,1772.49 2138.5,1774C 2115.85,1789.95 2091.35,1802.45 2065,1811.5C 2063.04,1810.71 2061.54,1809.37 2060.5,1807.5C 2065.5,1798.17 2070.5,1788.83 2075.5,1779.5C 2068.74,1769.56 2062.57,1759.23 2057,1748.5C 2053.77,1742.41 2053.94,1736.57 2057.5,1731C 2062.57,1727.93 2067.9,1725.76 2073.5,1724.5 Z"/></g>
<g><path style="opacity:1" fill="#140d15" d="M 1390.5,1727.5 C 1402.73,1726.23 1408.73,1731.73 1408.5,1744C 1408.52,1753.95 1403.86,1760.62 1394.5,1764C 1390.63,1767.53 1387.13,1771.37 1384,1775.5C 1381.03,1786.41 1380.87,1797.41 1383.5,1808.5C 1376.57,1806.95 1369.57,1806.45 1362.5,1807C 1351.29,1810.52 1346.12,1818.02 1347,1829.5C 1355.1,1843.87 1362.27,1858.71 1368.5,1874C 1366.1,1885.07 1359.43,1892.4 1348.5,1896C 1345.17,1896.67 1341.83,1896.67 1338.5,1896C 1334.71,1894.27 1331.04,1892.27 1327.5,1890C 1312.95,1876.02 1299.45,1861.19 1287,1845.5C 1279.99,1835.21 1281.16,1826.05 1290.5,1818C 1306.14,1808.02 1322.47,1799.35 1339.5,1792C 1342.33,1789.17 1345.17,1786.33 1348,1783.5C 1359.76,1762.92 1373.92,1744.25 1390.5,1727.5 Z"/></g>
<g><path style="opacity:1" fill="#140d14" d="M 2189.5,1729.5 C 2196.09,1728.64 2201.93,1730.31 2207,1734.5C 2219.24,1750.66 2231.24,1766.99 2243,1783.5C 2248.35,1789.42 2254.52,1794.25 2261.5,1798C 2276.18,1804.09 2290.01,1811.59 2303,1820.5C 2309.96,1828.5 2310.29,1836.83 2304,1845.5C 2295.71,1856.13 2287.04,1866.46 2278,1876.5C 2272.43,1882.74 2266.26,1888.24 2259.5,1893C 2250.61,1897.98 2241.95,1897.64 2233.5,1892C 2230.57,1889.62 2227.74,1887.12 2225,1884.5C 2221.81,1880.7 2220.81,1876.37 2222,1871.5C 2231.4,1856.37 2238.9,1840.37 2244.5,1823.5C 2243.11,1814.95 2238.11,1809.78 2229.5,1808C 2222.84,1807.5 2216.17,1807.33 2209.5,1807.5C 2209.67,1799.16 2209.5,1790.83 2209,1782.5C 2203.47,1773.3 2196.81,1764.97 2189,1757.5C 2181.6,1747.99 2181.76,1738.66 2189.5,1729.5 Z"/></g>
<g><path style="opacity:1" fill="#140d15" d="M 1794.5,1763.5 C 1795.17,1766.17 1795.83,1766.17 1796.5,1763.5C 1798.83,1753.5 1801.17,1743.5 1803.5,1733.5C 1820.14,1739.39 1832.64,1750.06 1841,1765.5C 1843.38,1773.39 1842.88,1781.06 1839.5,1788.5C 1835.95,1791.28 1831.95,1792.11 1827.5,1791C 1816.54,1785.9 1805.04,1783.07 1793,1782.5C 1789.1,1782.52 1785.26,1783.02 1781.5,1784C 1774.11,1786.95 1766.61,1789.45 1759,1791.5C 1753.93,1791.11 1750.6,1788.44 1749,1783.5C 1747.39,1775.23 1748.72,1767.56 1753,1760.5C 1762.23,1750.6 1772.06,1741.43 1782.5,1733C 1784.49,1732.82 1786.49,1732.99 1788.5,1733.5C 1790.28,1743.52 1792.28,1753.52 1794.5,1763.5 Z"/></g>
<g><path style="opacity:1" fill="#140d14" d="M 1252.5,1738.5 C 1263.08,1736.92 1271.58,1740.25 1278,1748.5C 1279.09,1754.1 1278.42,1759.43 1276,1764.5C 1263.63,1770.27 1251.46,1776.43 1239.5,1783C 1234.54,1787.27 1230.54,1792.27 1227.5,1798C 1218.76,1800.65 1213.43,1797.32 1211.5,1788C 1216.35,1764.1 1230.02,1747.6 1252.5,1738.5 Z"/></g>
<g><path style="opacity:1" fill="#150d15" d="M 2324.5,1739.5 C 2336.46,1738.31 2347.12,1741.48 2356.5,1749C 2368.88,1758.59 2376.54,1771.09 2379.5,1786.5C 2378.79,1793.68 2375.13,1798.18 2368.5,1800C 2365.83,1798.33 2363.17,1796.67 2360.5,1795C 2354.43,1788.26 2347.76,1782.26 2340.5,1777C 2333.83,1774.33 2327.17,1771.67 2320.5,1769C 2310.19,1762.3 2308.85,1754.13 2316.5,1744.5C 2318.93,1742.29 2321.59,1740.63 2324.5,1739.5 Z"/></g>
<g><path style="opacity:1" fill="#754f0c" d="M 1794.5,1763.5 C 1795.17,1763.5 1795.83,1763.5 1796.5,1763.5C 1795.83,1766.17 1795.17,1766.17 1794.5,1763.5 Z"/></g>
<g><path style="opacity:1" fill="#140d15" d="M 1945.5,1769.5 C 1948.79,1772.75 1950.45,1776.75 1950.5,1781.5C 1947.5,1795.84 1944.66,1810.18 1942,1824.5C 1960.6,1812.62 1980.1,1802.45 2000.5,1794C 2023.19,1789.13 2030.02,1797.63 2021,1819.5C 1992.75,1843.88 1963.25,1866.72 1932.5,1888C 1925.23,1892.47 1917.56,1896.14 1909.5,1899C 1904.21,1900.26 1898.88,1900.6 1893.5,1900C 1886.21,1897.7 1883.71,1892.86 1886,1885.5C 1889.09,1880.33 1892.42,1875.33 1896,1870.5C 1902.81,1867.02 1907.48,1861.69 1910,1854.5C 1914.08,1829.18 1921.41,1804.85 1932,1781.5C 1936.48,1777.37 1940.98,1773.37 1945.5,1769.5 Z"/></g>
<g><path style="opacity:1" fill="#140d14" d="M 1642.5,1772.5 C 1651.1,1773.71 1657.6,1778.05 1662,1785.5C 1668.3,1795.72 1672.63,1806.72 1675,1818.5C 1676.45,1829.87 1678.12,1841.2 1680,1852.5C 1681.14,1856.11 1682.81,1859.45 1685,1862.5C 1689,1865.83 1693,1869.17 1697,1872.5C 1700.44,1880.49 1702.61,1888.83 1703.5,1897.5C 1699.49,1898.22 1695.49,1899.06 1691.5,1900C 1688.5,1900.67 1685.5,1900.67 1682.5,1900C 1663.58,1891.71 1646.25,1881.05 1630.5,1868C 1614.27,1852.1 1596.61,1838.1 1577.5,1826C 1567.31,1818.44 1564.15,1808.6 1568,1796.5C 1572.49,1791.74 1577.99,1790.24 1584.5,1792C 1606.83,1801 1628.16,1811.83 1648.5,1824.5C 1648.83,1824 1649.17,1823.5 1649.5,1823C 1645.32,1809.76 1642.32,1796.26 1640.5,1782.5C 1640.85,1779.09 1641.52,1775.75 1642.5,1772.5 Z"/></g>
<g><path style="opacity:1" fill="#150d14" d="M 1455.5,1799.5 C 1460.44,1799.53 1465.1,1800.7 1469.5,1803C 1509.85,1823.37 1534.35,1855.87 1543,1900.5C 1554.35,1912.18 1566.35,1923.18 1579,1933.5C 1581.08,1936.75 1582.58,1940.25 1583.5,1944C 1578.4,1946.34 1573.06,1947.01 1567.5,1946C 1547.82,1939.91 1530.32,1930.08 1515,1916.5C 1514.33,1915.5 1514.33,1914.5 1515,1913.5C 1520.36,1905.11 1524.36,1896.11 1527,1886.5C 1528.85,1870.71 1522.35,1859.88 1507.5,1854C 1487.25,1845.7 1466.92,1845.37 1446.5,1853C 1456.21,1869.58 1466.04,1886.08 1476,1902.5C 1476.98,1905.26 1476.14,1907.26 1473.5,1908.5C 1451.09,1896.55 1428.92,1884.21 1407,1871.5C 1405,1867.83 1405,1864.17 1407,1860.5C 1422.54,1842.96 1436.54,1824.3 1449,1804.5C 1451.33,1802.93 1453.49,1801.27 1455.5,1799.5 Z"/></g>
<g><path style="opacity:1" fill="#150d14" d="M 2127.5,1800.5 C 2133,1799.64 2137.83,1800.97 2142,1804.5C 2151.43,1821.03 2162.1,1836.7 2174,1851.5C 2177.52,1854.27 2180.86,1857.27 2184,1860.5C 2186.3,1865.04 2185.8,1869.21 2182.5,1873C 2161.14,1887.68 2138.14,1899.18 2113.5,1907.5C 2122.93,1889.05 2133.27,1871.05 2144.5,1853.5C 2128.14,1848.33 2111.48,1847.16 2094.5,1850C 2086.61,1852.61 2079.28,1856.28 2072.5,1861C 2063.47,1869.82 2060.97,1880.32 2065,1892.5C 2068.12,1900.07 2071.79,1907.4 2076,1914.5C 2076.67,1915.5 2076.67,1916.5 2076,1917.5C 2063.12,1928.02 2048.96,1936.52 2033.5,1943C 2025.09,1946.16 2016.42,1947.16 2007.5,1946C 2006.57,1944.81 2005.9,1943.47 2005.5,1942C 2012.86,1931.64 2021.86,1922.97 2032.5,1916C 2042.09,1908.08 2048.92,1898.24 2053,1886.5C 2058.72,1858.54 2072.89,1836.04 2095.5,1819C 2105.77,1812.03 2116.44,1805.87 2127.5,1800.5 Z"/></g>
<g><path style="opacity:1" fill="#77500d" d="M 2562.5,1822.5 C 2563.29,1822.78 2563.96,1823.28 2564.5,1824C 2559.98,1824.81 2555.65,1824.65 2551.5,1823.5C 2555.37,1823.81 2559.04,1823.48 2562.5,1822.5 Z"/></g>
<g><path style="opacity:1" fill="#160e14" d="M 1214.5,1832.5 C 1222.36,1831.23 1229.36,1833.06 1235.5,1838C 1237.01,1838.84 1237.51,1840 1237,1841.5C 1224.24,1851.59 1212.07,1862.42 1200.5,1874C 1186.4,1881.44 1173.4,1890.44 1161.5,1901C 1143.63,1919.87 1126.13,1939.03 1109,1958.5C 1102.43,1965.74 1095.26,1972.24 1087.5,1978C 1086.5,1978.67 1085.5,1978.67 1084.5,1978C 1083.37,1973.92 1083.2,1969.75 1084,1965.5C 1089.34,1955.47 1095.68,1946.14 1103,1937.5C 1115.87,1925.63 1129.04,1914.13 1142.5,1903C 1159.6,1884.14 1176.93,1865.48 1194.5,1847C 1200.79,1841.53 1207.46,1836.7 1214.5,1832.5 Z"/></g>
<g><path style="opacity:1" fill="#160e15" d="M 2365.5,1832.5 C 2370.37,1832.19 2375.04,1833.03 2379.5,1835C 2393.81,1844.3 2406.64,1855.47 2418,1868.5C 2426,1877.83 2434,1887.17 2442,1896.5C 2461,1914.5 2480,1932.5 2499,1950.5C 2506.54,1959.68 2508.88,1970.01 2506,1981.5C 2497.07,1974.57 2488.73,1966.9 2481,1958.5C 2464.97,1938.46 2447.47,1919.63 2428.5,1902C 2415.01,1892.09 2401.34,1882.42 2387.5,1873C 2380.83,1865.67 2374.17,1858.33 2367.5,1851C 2361.76,1847.2 2355.43,1845.2 2348.5,1845C 2353.51,1839.81 2359.17,1835.64 2365.5,1832.5 Z"/></g>
<g><path style="opacity:1" fill="#885c0b" d="M 2599.5,1833.5 C 2600.04,1833.56 2600.38,1833.89 2600.5,1834.5C 2597.23,1835.49 2593.9,1835.82 2590.5,1835.5C 2593.5,1834.83 2596.5,1834.17 2599.5,1833.5 Z"/></g>
<g><path style="opacity:1" fill="#140d14" d="M 2337.5,1864.5 C 2344.01,1875.51 2351.51,1885.85 2360,1895.5C 2372.4,1908.56 2385.4,1920.9 2399,1932.5C 2419.53,1955.23 2433.53,1981.56 2441,2011.5C 2444.05,2027.45 2437.88,2033.29 2422.5,2029C 2417.03,2024.53 2411.87,2019.7 2407,2014.5C 2403.16,2008.82 2399.83,2002.82 2397,1996.5C 2389,1977.17 2381,1957.83 2373,1938.5C 2365.18,1932.55 2357.85,1925.89 2351,1918.5C 2341.66,1904.65 2336.83,1889.31 2336.5,1872.5C 2336.19,1869.61 2336.53,1866.95 2337.5,1864.5 Z"/></g>
<g><path style="opacity:1" fill="#150d14" d="M 1254.5,1864.5 C 1255.97,1885.6 1250.14,1904.6 1237,1921.5C 1231.54,1926.89 1225.54,1931.56 1219,1935.5C 1208.27,1960.62 1197.27,1985.62 1186,2010.5C 1179.58,2020.43 1170.74,2027.1 1159.5,2030.5C 1154.97,2030.65 1151.8,2028.65 1150,2024.5C 1148.79,2021.23 1148.45,2017.9 1149,2014.5C 1158.03,1984.77 1172.03,1957.77 1191,1933.5C 1202,1923.17 1213,1912.83 1224,1902.5C 1234.76,1890.25 1244.93,1877.58 1254.5,1864.5 Z"/></g>
<g><path style="opacity:1" fill="#734d0d" d="M 2337.5,1864.5 C 2336.53,1866.95 2336.19,1869.61 2336.5,1872.5C 2335.36,1869.36 2335.19,1866.03 2336,1862.5C 2336.72,1863.04 2337.22,1863.71 2337.5,1864.5 Z"/></g>
<g><path style="opacity:1" fill="#140d14" d="M 1747.5,1870.5 C 1760.92,1868.29 1769.75,1873.63 1774,1886.5C 1780.65,1907.94 1785.48,1929.77 1788.5,1952C 1788.86,1960.28 1785.19,1965.95 1777.5,1969C 1745.24,1979.86 1712.91,1990.53 1680.5,2001C 1674.99,2000.08 1669.99,1997.75 1665.5,1994C 1667.05,1988.67 1669.72,1984 1673.5,1980C 1701.11,1973.03 1728.78,1966.36 1756.5,1960C 1761.78,1958.39 1765.45,1955.05 1767.5,1950C 1766.91,1947.21 1765.74,1944.71 1764,1942.5C 1752.97,1932.07 1741.47,1922.24 1729.5,1913C 1716.57,1900.02 1717.57,1888.35 1732.5,1878C 1737.59,1875.45 1742.59,1872.95 1747.5,1870.5 Z"/></g>
<g><path style="opacity:1" fill="#150d15" d="M 1832.5,1870.5 C 1847.05,1870.7 1858.89,1876.36 1868,1887.5C 1871.49,1894.04 1871.16,1900.38 1867,1906.5C 1857,1915.17 1847,1923.83 1837,1932.5C 1832.64,1938.7 1828.47,1945.03 1824.5,1951.5C 1830.71,1956.11 1837.38,1959.94 1844.5,1963C 1866.57,1967.35 1888.57,1972.02 1910.5,1977C 1916.44,1978.71 1920.94,1982.21 1924,1987.5C 1924.82,1990.55 1924.65,1993.55 1923.5,1996.5C 1918.31,2000.02 1912.64,2001.19 1906.5,2000C 1876.26,1989.81 1845.92,1979.81 1815.5,1970C 1804.54,1965.47 1799.71,1957.31 1801,1945.5C 1807.13,1923.86 1813.13,1902.19 1819,1880.5C 1822.37,1875.57 1826.87,1872.24 1832.5,1870.5 Z"/></g>
<g><path style="opacity:1" fill="#150e15" d="M 1281.5,1907.5 C 1299.05,1907.57 1305.55,1916.24 1301,1933.5C 1298.3,1951.39 1290.47,1966.56 1277.5,1979C 1255.04,1994.45 1234.04,2011.78 1214.5,2031C 1212.31,2032.92 1209.98,2034.25 1207.5,2035C 1204.7,2028.43 1204.87,2021.93 1208,2015.5C 1210.67,2012.17 1213.33,2008.83 1216,2005.5C 1229.72,1992.44 1243.39,1979.44 1257,1966.5C 1259.71,1955.93 1262.05,1945.26 1264,1934.5C 1265.74,1925.58 1269.58,1917.75 1275.5,1911C 1277.73,1910.06 1279.73,1908.89 1281.5,1907.5 Z"/></g>
<g><path style="opacity:1" fill="#150d14" d="M 2299.5,1908.5 C 2308.81,1907.4 2315.97,1910.74 2321,1918.5C 2326.48,1932.37 2330.14,1946.7 2332,1961.5C 2332.72,1963.95 2333.72,1966.28 2335,1968.5C 2351.3,1982.47 2366.63,1997.47 2381,2013.5C 2386.39,2021.21 2386.89,2029.21 2382.5,2037.5C 2366.35,2023.18 2350.35,2008.68 2334.5,1994C 2325.99,1988.58 2317.66,1982.91 2309.5,1977C 2293.23,1958.64 2287.39,1937.48 2292,1913.5C 2294.48,1911.69 2296.98,1910.02 2299.5,1908.5 Z"/></g>
<g><path style="opacity:1" fill="#150d15" d="M 1395.5,1956.5 C 1440.42,1953.65 1482.08,1963.81 1520.5,1987C 1528.17,1992 1535.83,1997 1543.5,2002C 1565.75,2018.91 1587.41,2036.58 1608.5,2055C 1618.56,2062.2 1629.56,2067.53 1641.5,2071C 1646.29,2071.93 1651.12,2072.43 1656,2072.5C 1675.84,2070.76 1695.68,2069.26 1715.5,2068C 1716.83,2068.67 1716.83,2069.33 1715.5,2070C 1696.46,2074.84 1677.46,2079.84 1658.5,2085C 1685.17,2104 1711.83,2123 1738.5,2142C 1740.94,2144.37 1740.61,2146.54 1737.5,2148.5C 1709.06,2132.52 1679.72,2118.35 1649.5,2106C 1610.82,2092.03 1572.82,2093.7 1535.5,2111C 1522.67,2117.58 1510.34,2124.91 1498.5,2133C 1497.24,2133.98 1495.91,2134.32 1494.5,2134C 1522.78,2105.35 1556.45,2085.69 1595.5,2075C 1587.5,2072 1579.5,2069 1571.5,2066C 1562.73,2062.88 1553.73,2061.88 1544.5,2063C 1461.02,2095.16 1388.52,2078.99 1327,2014.5C 1315.7,2001.89 1305.86,1988.23 1297.5,1973.5C 1310.26,1968.47 1323.6,1964.97 1337.5,1963C 1356.93,1960.36 1376.27,1958.19 1395.5,1956.5 Z"/></g>
<g><path style="opacity:1" fill="#150d15" d="M 2150.5,1957.5 C 2174.92,1956.86 2199.26,1958.02 2223.5,1961C 2237.45,1963.06 2251.45,1964.72 2265.5,1966C 2274.84,1967.42 2283.84,1969.92 2292.5,1973.5C 2269.64,2015.53 2236.3,2046.36 2192.5,2066C 2165.08,2076.47 2136.75,2080.47 2107.5,2078C 2082.95,2073.28 2058.62,2067.78 2034.5,2061.5C 2019.93,2065.08 2005.59,2069.58 1991.5,2075C 2024.99,2083.91 2055.32,2098.91 2082.5,2120C 2088.71,2125.68 2094.04,2131.51 2098.5,2137.5C 2080.6,2125.13 2061.6,2114.63 2041.5,2106C 2005.71,2093.14 1970.05,2093.48 1934.5,2107C 1906.31,2119.43 1878.65,2132.93 1851.5,2147.5C 1853.6,2143.84 1856.6,2140.34 1860.5,2137C 1883.25,2116.78 1908.25,2099.78 1935.5,2086C 1912.23,2079.85 1888.89,2074.01 1865.5,2068.5C 1865.5,2067.5 1865.5,2066.5 1865.5,2065.5C 1883.85,2069.09 1902.35,2071.42 1921,2072.5C 1944.21,2073.21 1965.37,2067.04 1984.5,2054C 2014.86,2026.99 2047.2,2002.66 2081.5,1981C 2103.07,1968.64 2126.07,1960.81 2150.5,1957.5 Z"/></g>
<g><path style="opacity:1" fill="#fcaa00" d="M 1440.5,1975.5 C 1446.18,1975.33 1451.84,1975.5 1457.5,1976C 1462.77,1983.48 1465.44,1991.82 1465.5,2001C 1464.51,2011.86 1463.68,2022.69 1463,2033.5C 1467.15,2044.49 1474.65,2047.65 1485.5,2043C 1496.49,2034.15 1500.66,2022.65 1498,2008.5C 1496.74,2000.87 1494.24,1993.71 1490.5,1987C 1490.83,1986.83 1491.17,1986.67 1491.5,1986.5C 1508.82,1995.4 1524.65,2006.4 1539,2019.5C 1543.6,2026.43 1543.6,2033.43 1539,2040.5C 1525.31,2053.26 1509.14,2061.09 1490.5,2064C 1477.53,2065.56 1464.53,2066.73 1451.5,2067.5C 1431.38,2068.54 1417.55,2059.87 1410,2041.5C 1404.99,2029.64 1403.32,2017.31 1405,2004.5C 1410.72,1987.27 1422.56,1977.6 1440.5,1975.5 Z"/></g>
<g><path style="opacity:1" fill="#fcaa00" d="M 2143.5,1976.5 C 2163.5,1975.73 2177.34,1984.39 2185,2002.5C 2189.65,2024.42 2184.15,2043.25 2168.5,2059C 2159.85,2063.84 2150.52,2066.84 2140.5,2068C 2118.12,2067.27 2096.12,2063.94 2074.5,2058C 2055,2051.89 2047.5,2039.06 2052,2019.5C 2070.09,2000.87 2091.59,1988.04 2116.5,1981C 2105.82,1995.54 2101.99,2011.7 2105,2029.5C 2108.38,2041.57 2116.21,2047.41 2128.5,2047C 2136.19,2043.97 2139.86,2038.3 2139.5,2030C 2138.88,2024.48 2138.05,2018.98 2137,2013.5C 2134.89,2001.98 2136.89,1991.32 2143,1981.5C 2143.49,1979.87 2143.66,1978.2 2143.5,1976.5 Z"/></g>
<g><path style="opacity:1" fill="#150d14" d="M 2317.5,2019.5 C 2325.62,2018.45 2331.12,2021.78 2334,2029.5C 2335.29,2033.58 2334.13,2036.75 2330.5,2039C 2326.58,2040.1 2322.58,2040.77 2318.5,2041C 2316.04,2042.46 2313.87,2044.29 2312,2046.5C 2310.03,2051.73 2308.36,2057.06 2307,2062.5C 2303.68,2069.75 2298.18,2074.59 2290.5,2077C 2270.15,2081.06 2249.81,2084.23 2229.5,2086.5C 2228.36,2085.57 2228.36,2084.74 2229.5,2084C 2245.22,2078.31 2259.56,2070.31 2272.5,2060C 2287.99,2047 2302.99,2033.5 2317.5,2019.5 Z"/></g>
<g><path style="opacity:1" fill="#160e15" d="M 1270.5,2019.5 C 1273.02,2019.76 1275.35,2020.59 1277.5,2022C 1296.41,2041.59 1317.08,2058.92 1339.5,2074C 1347.26,2078.21 1355.26,2081.88 1363.5,2085C 1362.95,2085.92 1362.29,2086.76 1361.5,2087.5C 1342.55,2084.12 1323.55,2080.95 1304.5,2078C 1296.34,2075.84 1289.84,2071.34 1285,2064.5C 1282.21,2057.49 1279.54,2050.49 1277,2043.5C 1276.1,2042.3 1274.93,2041.47 1273.5,2041C 1265.97,2042.15 1260.14,2039.65 1256,2033.5C 1255.38,2029.69 1256.55,2026.53 1259.5,2024C 1263.05,2021.88 1266.72,2020.38 1270.5,2019.5 Z"/></g>
<g><path style="opacity:1" fill="#150e15" d="M 1074.5,2025.5 C 1075.87,2035.66 1077.03,2045.99 1078,2056.5C 1079.7,2063.23 1083.87,2066.4 1090.5,2066C 1099.65,2062.26 1108.65,2058.26 1117.5,2054C 1124.97,2051.12 1132.63,2048.96 1140.5,2047.5C 1145.22,2048.69 1149.55,2050.69 1153.5,2053.5C 1151.87,2059.24 1149.2,2064.41 1145.5,2069C 1121.74,2088.08 1098.58,2107.92 1076,2128.5C 1072.05,2108 1069.55,2087.34 1068.5,2066.5C 1068.88,2052.58 1070.88,2038.91 1074.5,2025.5 Z"/></g>
<g><path style="opacity:1" fill="#60410f" d="M 2516.5,2029.5 C 2515.83,2032.17 2515.17,2034.83 2514.5,2037.5C 2514.33,2033.82 2514.5,2030.15 2515,2026.5C 2516.04,2027.24 2516.54,2028.24 2516.5,2029.5 Z"/></g>
<g><path style="opacity:1" fill="#150d15" d="M 2516.5,2029.5 C 2521.78,2051.56 2522.94,2073.89 2520,2096.5C 2518.41,2106.88 2516.58,2117.22 2514.5,2127.5C 2491.13,2108.81 2468.13,2089.64 2445.5,2070C 2441.39,2064.85 2438.73,2059.02 2437.5,2052.5C 2440.69,2051.91 2443.69,2050.74 2446.5,2049C 2456.95,2049.11 2466.95,2051.45 2476.5,2056C 2483.45,2058.81 2490.11,2062.14 2496.5,2066C 2506.04,2069.16 2511.54,2065.66 2513,2055.5C 2513.83,2049.52 2514.33,2043.52 2514.5,2037.5C 2515.17,2034.83 2515.83,2032.17 2516.5,2029.5 Z"/></g>
<g><path style="opacity:1" fill="#140c14" d="M 1194.5,2073.5 C 1197.65,2073.21 1200.65,2073.71 1203.5,2075C 1211.05,2084.23 1220.05,2091.56 1230.5,2097C 1240.14,2100.73 1250.14,2102.4 1260.5,2102C 1268.74,2104.31 1277.08,2106.14 1285.5,2107.5C 1285.71,2109.14 1285.38,2110.64 1284.5,2112C 1248.12,2119.39 1222.95,2140.22 1209,2174.5C 1196.43,2192.74 1179.59,2205.24 1158.5,2212C 1145.33,2214.83 1138.66,2209.5 1138.5,2196C 1143,2154.81 1157.5,2117.64 1182,2084.5C 1185.77,2080.22 1189.93,2076.56 1194.5,2073.5 Z"/></g>
<g><path style="opacity:1" fill="#140d15" d="M 2389.5,2073.5 C 2392.79,2073.26 2395.79,2074.09 2398.5,2076C 2415.7,2092.89 2428.53,2112.73 2437,2135.5C 2446.44,2157.24 2451.1,2179.9 2451,2203.5C 2449.69,2210.66 2445.36,2214 2438,2213.5C 2412.85,2208.01 2393.52,2194.35 2380,2172.5C 2365.93,2139.21 2341.09,2119.38 2305.5,2113C 2304.62,2111.64 2304.29,2110.14 2304.5,2108.5C 2311.95,2107.24 2319.28,2105.41 2326.5,2103C 2342.73,2103.42 2357.73,2099.42 2371.5,2091C 2378.06,2085.61 2384.06,2079.77 2389.5,2073.5 Z"/></g>
<g><path style="opacity:1" fill="#170f14" d="M 1479.5,2095.5 C 1480.83,2095.5 1482.17,2095.5 1483.5,2095.5C 1484.89,2098.03 1484.56,2100.19 1482.5,2102C 1475.67,2106.91 1468.67,2111.58 1461.5,2116C 1455.33,2120.28 1449,2120.44 1442.5,2116.5C 1444.13,2111.78 1446.13,2107.28 1448.5,2103C 1458.84,2100.04 1469.17,2097.54 1479.5,2095.5 Z"/></g>
<g><path style="opacity:1" fill="#160e14" d="M 2107.5,2096.5 C 2120.12,2097.66 2132.46,2100.16 2144.5,2104C 2149.06,2108.54 2149.73,2113.71 2146.5,2119.5C 2142.65,2121.98 2138.65,2122.14 2134.5,2120C 2124.6,2113.89 2115.26,2107.05 2106.5,2099.5C 2107.13,2098.58 2107.46,2097.58 2107.5,2096.5 Z"/></g>
<g><path style="opacity:1" fill="#160e15" d="M 1318.5,2135.5 C 1325.88,2134.69 1332.88,2135.86 1339.5,2139C 1338.4,2142.63 1336.74,2145.96 1334.5,2149C 1317.25,2161.14 1298.25,2167.31 1277.5,2167.5C 1278.11,2159.23 1280.77,2151.73 1285.5,2145C 1288.37,2143.07 1291.37,2141.4 1294.5,2140C 1302.66,2138.59 1310.66,2137.09 1318.5,2135.5 Z"/></g>
<g><path style="opacity:1" fill="#160e15" d="M 2257.5,2135.5 C 2269.27,2136.15 2280.94,2137.65 2292.5,2140C 2295.58,2141.14 2298.58,2142.47 2301.5,2144C 2306.66,2150.66 2311.33,2157.66 2315.5,2165C 2313.48,2167.02 2310.98,2167.85 2308,2167.5C 2289.72,2167.81 2273.22,2162.64 2258.5,2152C 2254.77,2148.65 2252.43,2144.48 2251.5,2139.5C 2253.57,2138.14 2255.57,2136.81 2257.5,2135.5 Z"/></g>
<g><path style="opacity:1" fill="#140d15" d="M 2179.5,2147.5 C 2182.39,2148.01 2184.72,2147.34 2186.5,2145.5C 2186.74,2144.9 2187.24,2144.57 2188,2144.5C 2201.44,2150.8 2214.94,2156.97 2228.5,2163C 2232.01,2164.91 2233.18,2167.74 2232,2171.5C 2228.44,2180.13 2223.27,2187.63 2216.5,2194C 2206.2,2201.64 2196.2,2201.3 2186.5,2193C 2175.06,2182.62 2169.22,2169.79 2169,2154.5C 2171.06,2149.94 2174.56,2147.6 2179.5,2147.5 Z"/></g>
<g><path style="opacity:1" fill="#140d14" d="M 1402.5,2146.5 C 1417.06,2143.57 1423.22,2149.23 1421,2163.5C 1417.39,2176.76 1410.22,2187.59 1399.5,2196C 1391.24,2200.86 1383.24,2200.53 1375.5,2195C 1368.45,2188.62 1362.95,2181.12 1359,2172.5C 1357.8,2168.21 1358.97,2164.71 1362.5,2162C 1374.87,2154.16 1388.2,2148.99 1402.5,2146.5 Z"/></g>
<g><path style="opacity:1" fill="#5b3d11" d="M 2186.5,2145.5 C 2184.72,2147.34 2182.39,2148.01 2179.5,2147.5C 2181.71,2146.73 2184.05,2146.07 2186.5,2145.5 Z"/></g>
<g><path style="opacity:1" fill="#150d14" d="M 1063.5,2159.5 C 1075.26,2163.17 1086.93,2168 1098.5,2174C 1105.8,2180.97 1109.97,2189.47 1111,2199.5C 1116.54,2221.28 1108.37,2234.11 1086.5,2238C 1083.81,2238.39 1081.15,2238.89 1078.5,2239.5C 1077.83,2239.17 1077.17,2238.83 1076.5,2238.5C 1089.23,2219.5 1089.73,2200.17 1078,2180.5C 1073.64,2173.09 1068.8,2166.09 1063.5,2159.5 Z"/></g>
<g><path style="opacity:1" fill="#150d14" d="M 2520.5,2161.5 C 2521.55,2161.35 2522.55,2161.52 2523.5,2162C 2515.52,2175.12 2509.02,2188.96 2504,2203.5C 2502.25,2218.03 2506.42,2230.53 2516.5,2241C 2506.74,2239.91 2497.07,2237.91 2487.5,2235C 2485.33,2234.17 2483.83,2232.67 2483,2230.5C 2481.12,2215.46 2481.12,2200.46 2483,2185.5C 2484.88,2180.57 2488.04,2176.74 2492.5,2174C 2502.23,2170.49 2511.56,2166.32 2520.5,2161.5 Z"/></g>
<g><path style="opacity:1" fill="#1c1314" d="M 1441.5,2178.5 C 1443.09,2178.63 1444.42,2179.29 1445.5,2180.5C 1438.84,2192.5 1431.67,2204.17 1424,2215.5C 1422.59,2214.21 1421.09,2213.05 1419.5,2212C 1427.48,2201.2 1434.81,2190.04 1441.5,2178.5 Z"/></g>
<g><path style="opacity:1" fill="#1b1214" d="M 2146.5,2179.5 C 2148.59,2179.56 2150.09,2180.56 2151,2182.5C 2157.08,2192.34 2163.42,2202 2170,2211.5C 2170.02,2214.47 2168.52,2215.64 2165.5,2215C 2159.13,2204.42 2152.63,2193.92 2146,2183.5C 2145.42,2182.07 2145.59,2180.74 2146.5,2179.5 Z"/></g>
<g><path style="opacity:1" fill="#130c15" d="M 1550.5,2218.5 C 1566.12,2230.63 1578.29,2245.63 1587,2263.5C 1593.59,2277.02 1599.92,2290.68 1606,2304.5C 1606.72,2305.06 1607.56,2305.39 1608.5,2305.5C 1646.72,2296.35 1685.39,2289.85 1724.5,2286C 1747.5,2285.57 1770.5,2285.74 1793.5,2286.5C 1809.7,2286.54 1825.87,2285.88 1842,2284.5C 1873.49,2285.55 1904.66,2289.39 1935.5,2296C 1950.83,2299.5 1966.16,2303 1981.5,2306.5C 1982.44,2306.39 1983.28,2306.06 1984,2305.5C 1993.09,2283.99 2003.76,2263.32 2016,2243.5C 2021.43,2236.07 2027.59,2229.24 2034.5,2223C 2036.69,2221.08 2039.02,2219.75 2041.5,2219C 2026.54,2246.42 2011.71,2273.92 1997,2301.5C 1995.69,2315.86 1994.03,2330.2 1992,2344.5C 1980.49,2365.35 1965.33,2383.18 1946.5,2398C 1929.79,2413.58 1918.29,2432.41 1912,2454.5C 1907.59,2464.99 1901.93,2474.66 1895,2483.5C 1880.73,2499.77 1865.73,2515.44 1850,2530.5C 1841.62,2539.88 1833.62,2549.54 1826,2559.5C 1818.77,2561.73 1813.77,2566.4 1811,2573.5C 1810.33,2586.83 1810.33,2600.17 1811,2613.5C 1812.03,2623.87 1817.53,2630.7 1827.5,2634C 1888.45,2655.43 1950.12,2674.43 2012.5,2691C 2051.19,2690.5 2089.85,2689.17 2128.5,2687C 2148.27,2684.65 2167.93,2681.98 2187.5,2679C 2151.68,2729.45 2119.51,2782.28 2091,2837.5C 2072.39,2875.99 2059.39,2916.33 2052,2958.5C 2039.77,3029.35 2028.44,3100.35 2018,3171.5C 2016.91,3180.09 2012.08,3184.09 2003.5,3183.5C 1936.82,3182.83 1870.16,3181.5 1803.5,3179.5C 1769.49,3179.71 1735.49,3180.55 1701.5,3182C 1661.17,3182.67 1620.83,3182.67 1580.5,3182C 1575.95,3180.41 1573.11,3177.25 1572,3172.5C 1562.86,3112.93 1554.52,3053.26 1547,2993.5C 1528.73,2901.32 1494.06,2815.99 1443,2737.5C 1427.93,2715.31 1412.93,2693.31 1398,2671.5C 1413.54,2680.6 1430.38,2685.43 1448.5,2686C 1461.83,2686.33 1475.17,2686.67 1488.5,2687C 1525.19,2692.86 1561.86,2692.86 1598.5,2687C 1657.97,2668.77 1716.97,2649.1 1775.5,2628C 1776.7,2627.1 1777.53,2625.93 1778,2624.5C 1778.67,2608.83 1778.67,2593.17 1778,2577.5C 1777.14,2573.46 1775.48,2569.79 1773,2566.5C 1742.85,2538.36 1714.85,2508.36 1689,2476.5C 1678.79,2462.4 1672.12,2446.73 1669,2429.5C 1666.42,2423.34 1663.09,2417.67 1659,2412.5C 1646.97,2400.8 1634.63,2389.47 1622,2378.5C 1615.33,2370.5 1608.67,2362.5 1602,2354.5C 1594.33,2341.44 1592.5,2327.61 1596.5,2313C 1596.06,2309.41 1595.23,2305.91 1594,2302.5C 1579.2,2274.57 1564.7,2246.57 1550.5,2218.5 Z"/></g>
<g><path style="opacity:1" fill="#140d14" d="M 1267.5,2241.5 C 1272.74,2241.02 1277.74,2241.86 1282.5,2244C 1292.71,2249.27 1303.04,2254.27 1313.5,2259C 1315,2262.88 1313.67,2265.55 1309.5,2267C 1290.13,2270.77 1275.63,2281.27 1266,2298.5C 1262.33,2306.5 1258.67,2314.5 1255,2322.5C 1244.78,2335.24 1231.95,2339.07 1216.5,2334C 1209.65,2327.3 1206.65,2319.14 1207.5,2309.5C 1215.5,2310 1223.5,2310.17 1231.5,2310C 1232.93,2309.53 1234.1,2308.7 1235,2307.5C 1241.42,2286.99 1249.75,2267.33 1260,2248.5C 1262.4,2245.93 1264.9,2243.6 1267.5,2241.5 Z"/></g>
<g><path style="opacity:1" fill="#150d15" d="M 2310.5,2242.5 C 2319.86,2241.59 2327.36,2244.93 2333,2252.5C 2341.96,2269.38 2348.96,2287.04 2354,2305.5C 2355.12,2307.62 2356.62,2309.46 2358.5,2311C 2366.81,2310.51 2375.14,2310.01 2383.5,2309.5C 2383.56,2332.63 2372.56,2341.13 2350.5,2335C 2341.61,2331.98 2335.44,2326.15 2332,2317.5C 2325.22,2290.05 2308.05,2273.55 2280.5,2268C 2278.83,2267 2277.5,2265.67 2276.5,2264C 2286.41,2254.55 2297.74,2247.38 2310.5,2242.5 Z"/></g>
<g><path style="opacity:1" fill="#160f15" d="M 1381.5,2273.5 C 1383.53,2273.34 1385.53,2273.5 1387.5,2274C 1404.56,2286.72 1421.89,2299.05 1439.5,2311C 1471.17,2331.34 1505.5,2345 1542.5,2352C 1533.9,2353.54 1525.23,2353.88 1516.5,2353C 1459.58,2345.03 1409.25,2322.7 1365.5,2286C 1370.45,2281.21 1375.78,2277.04 1381.5,2273.5 Z"/></g>
<g><path style="opacity:1" fill="#150e14" d="M 2061.5,2353.5 C 2058.94,2353.8 2056.61,2353.47 2054.5,2352.5C 2076.59,2345.45 2098.26,2337.29 2119.5,2328C 2146.85,2312.97 2172.85,2295.97 2197.5,2277C 2202.8,2273.75 2208.14,2273.75 2213.5,2277C 2217.66,2280.25 2221.99,2283.25 2226.5,2286C 2178.89,2326.12 2123.89,2348.62 2061.5,2353.5 Z"/></g>
<g><path style="opacity:1" fill="#140d15" d="M 1103.5,2287.5 C 1107.51,2287.33 1111.51,2287.5 1115.5,2288C 1120.84,2291.83 1124.34,2296.99 1126,2303.5C 1134.49,2329.14 1142.83,2354.81 1151,2380.5C 1156.17,2396.51 1164.17,2410.85 1175,2423.5C 1209.31,2455.44 1234.65,2493.44 1251,2537.5C 1254.14,2547.96 1255.14,2558.63 1254,2569.5C 1252.6,2575.9 1248.77,2580.07 1242.5,2582C 1223.69,2585.35 1208.86,2579.18 1198,2563.5C 1195.57,2559.46 1193.91,2555.13 1193,2550.5C 1189.57,2527.39 1185.57,2504.39 1181,2481.5C 1163.62,2451.9 1145.12,2423.07 1125.5,2395C 1124.67,2394.31 1124,2394.48 1123.5,2395.5C 1136.27,2422.05 1148.77,2448.71 1161,2475.5C 1164.45,2484.98 1166.79,2494.65 1168,2504.5C 1167.2,2505.8 1166.03,2506.47 1164.5,2506.5C 1153.06,2502.62 1143.06,2496.45 1134.5,2488C 1095.76,2451.47 1080.26,2406.63 1088,2353.5C 1088.83,2335.01 1090.83,2316.68 1094,2298.5C 1096.31,2294.02 1099.48,2290.36 1103.5,2287.5 Z"/></g>
<g><path style="opacity:1" fill="#140d15" d="M 2478.5,2288.5 C 2485.6,2288.75 2490.77,2292.09 2494,2298.5C 2500.15,2315.25 2503.48,2332.58 2504,2350.5C 2507.07,2385.05 2501.41,2418.05 2487,2449.5C 2473.93,2472.57 2456.1,2491.07 2433.5,2505C 2430.18,2505.5 2426.85,2505.67 2423.5,2505.5C 2423.02,2499.3 2423.85,2493.3 2426,2487.5C 2437.96,2457.24 2451.3,2427.57 2466,2398.5C 2466.75,2397.36 2466.58,2396.36 2465.5,2395.5C 2444.2,2420.06 2426.37,2447.06 2412,2476.5C 2409.77,2480.96 2408.1,2485.63 2407,2490.5C 2403.44,2510.85 2399.77,2531.19 2396,2551.5C 2394.16,2568.68 2384.66,2578.85 2367.5,2582C 2345.69,2587.88 2334.85,2579.71 2335,2557.5C 2337.27,2544.29 2341.27,2531.62 2347,2519.5C 2365.52,2481.32 2389.85,2447.32 2420,2417.5C 2430.05,2401.05 2438.38,2383.71 2445,2365.5C 2451.33,2345.17 2457.66,2324.84 2464,2304.5C 2468.63,2298.86 2473.46,2293.53 2478.5,2288.5 Z"/></g>
<g><path style="opacity:1" fill="#fcaa00" d="M 1722.5,2312.5 C 1738.61,2313.69 1754.61,2315.85 1770.5,2319C 1788.17,2320.98 1805.84,2320.98 1823.5,2319C 1836.78,2316.38 1850.11,2314.21 1863.5,2312.5C 1868.1,2312.16 1872.44,2312.99 1876.5,2315C 1879.03,2317.08 1879.03,2319.08 1876.5,2321C 1860.66,2325.39 1845.66,2331.72 1831.5,2340C 1828.3,2342.87 1825.46,2346.04 1823,2349.5C 1818.81,2357.08 1814.81,2364.74 1811,2372.5C 1807.38,2377.32 1802.55,2379.32 1796.5,2378.5C 1789.53,2378.93 1784.03,2376.26 1780,2370.5C 1775.37,2362.28 1771.7,2353.61 1769,2344.5C 1768,2341.83 1766.5,2339.49 1764.5,2337.5C 1748.56,2331.35 1732.22,2326.52 1715.5,2323C 1714.25,2320.79 1714.42,2318.62 1716,2316.5C 1718.09,2314.88 1720.26,2313.54 1722.5,2312.5 Z"/></g>
<g><path style="opacity:1" fill="#160f14" d="M 1517.5,2446.5 C 1517.5,2446.83 1517.5,2447.17 1517.5,2447.5C 1483.63,2446.91 1450.96,2440.41 1419.5,2428C 1397.88,2418.96 1379.71,2405.46 1365,2387.5C 1356.02,2374.87 1352.35,2360.87 1354,2345.5C 1354.72,2344.55 1355.55,2344.38 1356.5,2345C 1383.5,2391.31 1422.83,2421.98 1474.5,2437C 1488.61,2441.28 1502.94,2444.44 1517.5,2446.5 Z"/></g>
<g><path style="opacity:1" fill="#170f14" d="M 2075.5,2447.5 C 2075.5,2447.17 2075.5,2446.83 2075.5,2446.5C 2116.66,2440.41 2154,2425.24 2187.5,2401C 2206.16,2385.35 2221.5,2367.01 2233.5,2346C 2234.78,2345.32 2235.95,2345.48 2237,2346.5C 2237.07,2370.86 2227.57,2390.69 2208.5,2406C 2188.66,2420.92 2166.66,2431.58 2142.5,2438C 2120.48,2443.47 2098.14,2446.63 2075.5,2447.5 Z"/></g>
<g><path style="opacity:1" fill="#61410f" d="M 2054.5,2352.5 C 2056.61,2353.47 2058.94,2353.8 2061.5,2353.5C 2058.36,2354.64 2055.03,2354.81 2051.5,2354C 2052.24,2352.96 2053.24,2352.46 2054.5,2352.5 Z"/></g>
<g><path style="opacity:1" fill="#160e15" d="M 1472.5,2371.5 C 1484.85,2373.1 1495.02,2378.76 1503,2388.5C 1507.09,2400.11 1502.92,2407.27 1490.5,2410C 1485.18,2412 1479.68,2413.16 1474,2413.5C 1464.03,2413.54 1458.37,2408.54 1457,2398.5C 1455.96,2385.91 1461.13,2376.91 1472.5,2371.5 Z"/></g>
<g><path style="opacity:1" fill="#150e15" d="M 2112.5,2371.5 C 2123.46,2371.96 2130.96,2377.29 2135,2387.5C 2135.93,2394.94 2134.59,2401.94 2131,2408.5C 2125.73,2413.25 2119.56,2414.75 2112.5,2413C 2107.62,2411.29 2102.62,2409.96 2097.5,2409C 2088.01,2404.19 2085.51,2397.02 2090,2387.5C 2096.31,2380.33 2103.81,2375 2112.5,2371.5 Z"/></g>
<g><path style="opacity:1" fill="#160e15" d="M 1540.5,2401.5 C 1548.09,2401.53 1554.59,2404.2 1560,2409.5C 1564.65,2414.77 1564.49,2419.94 1559.5,2425C 1552.59,2427.52 1545.59,2428.85 1538.5,2429C 1531.92,2424.53 1529.75,2418.36 1532,2410.5C 1533.69,2406.31 1536.52,2403.31 1540.5,2401.5 Z"/></g>
<g><path style="opacity:1" fill="#160e14" d="M 2044.5,2401.5 C 2051.4,2400.87 2056.57,2403.53 2060,2409.5C 2063.17,2425.42 2057,2431.59 2041.5,2428C 2034.21,2427.37 2029.87,2423.54 2028.5,2416.5C 2029.83,2412.66 2032.17,2409.49 2035.5,2407C 2038.56,2405.14 2041.56,2403.31 2044.5,2401.5 Z"/></g>
<g><path style="opacity:1" fill="#160e15" d="M 1601.5,2426.5 C 1609.81,2425.57 1615.64,2428.9 1619,2436.5C 1621.11,2443.03 1621.78,2449.69 1621,2456.5C 1616.13,2461.72 1610.29,2462.89 1603.5,2460C 1599.92,2457.81 1596.26,2455.81 1592.5,2454C 1585.73,2446.19 1586.06,2438.52 1593.5,2431C 1596.1,2429.2 1598.77,2427.7 1601.5,2426.5 Z"/></g>
<g><path style="opacity:1" fill="#160e15" d="M 1983.5,2426.5 C 1997.47,2426.64 2004.63,2433.64 2005,2447.5C 1999.94,2454.54 1993.11,2459.04 1984.5,2461C 1978.42,2462.86 1973.92,2461.02 1971,2455.5C 1969.82,2446.38 1971.82,2438.05 1977,2430.5C 1979.01,2428.75 1981.18,2427.42 1983.5,2426.5 Z"/></g>
<g><path style="opacity:1" fill="#160e15" d="M 1337.5,2428.5 C 1366.54,2453.19 1397.21,2475.69 1429.5,2496C 1452.09,2508.75 1476.09,2517.75 1501.5,2523C 1520.08,2526.42 1538.75,2529.08 1557.5,2531C 1476.58,2543.57 1407.08,2521.07 1349,2463.5C 1341.63,2453.05 1337.8,2441.38 1337.5,2428.5 Z"/></g>
<g><path style="opacity:1" fill="#150e15" d="M 2075.5,2534.5 C 2061.83,2534.5 2048.17,2534.5 2034.5,2534.5C 2034.74,2533.21 2034.4,2532.21 2033.5,2531.5C 2119.54,2525.15 2192.2,2490.81 2251.5,2428.5C 2252.75,2446.5 2246.42,2461.34 2232.5,2473C 2188.13,2513.19 2135.79,2533.69 2075.5,2534.5 Z"/></g>
<g><path style="opacity:1" fill="#855a0c" d="M 1517.5,2446.5 C 1519.93,2446.52 1522.26,2447.02 1524.5,2448C 1521.96,2448.8 1519.63,2448.63 1517.5,2447.5C 1517.5,2447.17 1517.5,2446.83 1517.5,2446.5 Z"/></g>
<g><path style="opacity:1" fill="#7f560c" d="M 2075.5,2446.5 C 2075.5,2446.83 2075.5,2447.17 2075.5,2447.5C 2073.37,2448.63 2071.04,2448.8 2068.5,2448C 2070.74,2447.02 2073.07,2446.52 2075.5,2446.5 Z"/></g>
<g><path style="opacity:1" fill="#170f14" d="M 1648.5,2463.5 C 1656.94,2463.45 1661.11,2467.45 1661,2475.5C 1656.82,2478 1652.32,2478.84 1647.5,2478C 1643.38,2472.89 1643.71,2468.05 1648.5,2463.5 Z"/></g>
<g><path style="opacity:1" fill="#170f14" d="M 1938.5,2463.5 C 1947.35,2465.04 1949.69,2469.88 1945.5,2478C 1941.03,2478.73 1936.7,2478.23 1932.5,2476.5C 1930.66,2474.47 1930.16,2472.14 1931,2469.5C 1933.48,2467.36 1935.98,2465.36 1938.5,2463.5 Z"/></g>
<g><path style="opacity:1" fill="#150d14" d="M 1518.5,2470.5 C 1529.72,2470.36 1538.89,2474.69 1546,2483.5C 1549.01,2492.65 1545.84,2498.49 1536.5,2501C 1529.63,2503.16 1522.63,2503.82 1515.5,2503C 1508.96,2497.33 1506.79,2490.17 1509,2481.5C 1511.31,2477.02 1514.48,2473.36 1518.5,2470.5 Z"/></g>
<g><path style="opacity:1" fill="#160e15" d="M 2065.5,2469.5 C 2080.08,2471.59 2085.91,2479.93 2083,2494.5C 2081.88,2497.25 2080.38,2499.75 2078.5,2502C 2067.98,2504.73 2057.98,2503.39 2048.5,2498C 2044.1,2493.12 2043.6,2487.95 2047,2482.5C 2052.27,2476.79 2058.44,2472.46 2065.5,2469.5 Z"/></g>
<g><path style="opacity:1" fill="#150d15" d="M 1582.5,2481.5 C 1593.23,2481.45 1601.73,2485.78 1608,2494.5C 1609.78,2504.42 1605.61,2509.92 1595.5,2511C 1577.83,2516.34 1570.33,2509.84 1573,2491.5C 1574.33,2489.5 1575.67,2487.5 1577,2485.5C 1579.02,2484.3 1580.85,2482.97 1582.5,2481.5 Z"/></g>
<g><path style="opacity:1" fill="#140d14" d="M 2000.5,2481.5 C 2009.2,2480.26 2015.36,2483.6 2019,2491.5C 2022.41,2507.41 2016.25,2514.24 2000.5,2512C 1995.55,2511.17 1990.88,2509.51 1986.5,2507C 1983.28,2502.79 1982.78,2498.29 1985,2493.5C 1989.78,2488.87 1994.95,2484.87 2000.5,2481.5 Z"/></g>
<g><path style="opacity:1" fill="#160e15" d="M 1643.5,2507.5 C 1651.45,2507.89 1658.28,2510.89 1664,2516.5C 1667.63,2521.74 1667.13,2526.58 1662.5,2531C 1655.76,2533.88 1648.76,2535.21 1641.5,2535C 1639.71,2534.22 1638.21,2533.05 1637,2531.5C 1632.07,2521.44 1634.23,2513.44 1643.5,2507.5 Z"/></g>
<g><path style="opacity:1" fill="#160e15" d="M 1941.5,2507.5 C 1948.74,2506.91 1953.91,2509.91 1957,2516.5C 1959.83,2529.76 1954.66,2535.93 1941.5,2535C 1935.88,2534.54 1931.05,2532.37 1927,2528.5C 1925.68,2525.59 1925.35,2522.59 1926,2519.5C 1930.21,2514.11 1935.38,2510.11 1941.5,2507.5 Z"/></g>
<g><path style="opacity:1" fill="#140d15" d="M 1368.5,2512.5 C 1384.44,2513.25 1396.94,2520.25 1406,2533.5C 1407.32,2540.39 1405.49,2546.22 1400.5,2551C 1388.78,2556.69 1376.45,2559.02 1363.5,2558C 1357.07,2553.99 1353.57,2548.16 1353,2540.5C 1351.84,2533.97 1353.18,2527.97 1357,2522.5C 1360.44,2518.55 1364.27,2515.22 1368.5,2512.5 Z"/></g>
<g><path style="opacity:1" fill="#140d15" d="M 2213.5,2512.5 C 2226.26,2512.42 2234.76,2518.42 2239,2530.5C 2239.92,2539.33 2238.08,2547.49 2233.5,2555C 2231.83,2556 2230.17,2557 2228.5,2558C 2223.17,2558.67 2217.83,2558.67 2212.5,2558C 2205.11,2556.82 2198.11,2554.49 2191.5,2551C 2185.15,2545.01 2183.98,2538.18 2188,2530.5C 2195.15,2522.36 2203.65,2516.36 2213.5,2512.5 Z"/></g>
<g><path style="opacity:1" fill="#150d14" d="M 1289.5,2515.5 C 1293.64,2517.12 1297.14,2519.79 1300,2523.5C 1307.98,2532.98 1316.15,2542.31 1324.5,2551.5C 1322.18,2554.32 1319.68,2556.98 1317,2559.5C 1316.14,2561.09 1315.47,2562.75 1315,2564.5C 1313.79,2578.66 1314.79,2592.66 1318,2606.5C 1322.27,2619.82 1326.44,2633.16 1330.5,2646.5C 1322.3,2646.48 1315.8,2643.15 1311,2636.5C 1301.63,2611.73 1294.3,2586.4 1289,2560.5C 1288.18,2545.43 1288.35,2530.43 1289.5,2515.5 Z"/></g>
<g><path style="opacity:1" fill="#150e14" d="M 2296.5,2515.5 C 2297.38,2515.37 2298.04,2515.7 2298.5,2516.5C 2303.81,2531.78 2304.98,2547.44 2302,2563.5C 2299.05,2587.01 2291.72,2609.01 2280,2629.5C 2275.17,2637.83 2268.34,2643.83 2259.5,2647.5C 2259.17,2647.17 2258.83,2646.83 2258.5,2646.5C 2262.56,2637.71 2266.06,2628.71 2269,2619.5C 2272.8,2600.64 2275.13,2581.64 2276,2562.5C 2274.32,2560.65 2272.48,2558.98 2270.5,2557.5C 2268.7,2554.71 2268.2,2551.71 2269,2548.5C 2278,2537.33 2287.17,2526.33 2296.5,2515.5 Z"/></g>
<g><path style="opacity:1" fill="#4d3410" d="M 2033.5,2531.5 C 2034.4,2532.21 2034.74,2533.21 2034.5,2534.5C 2048.17,2534.5 2061.83,2534.5 2075.5,2534.5C 2061.68,2535.5 2047.68,2535.83 2033.5,2535.5C 2033.5,2534.17 2033.5,2532.83 2033.5,2531.5 Z"/></g>
<g><path style="opacity:1" fill="#181015" d="M 1699.5,2541.5 C 1707.44,2541.29 1711.61,2544.96 1712,2552.5C 1707.78,2556.05 1702.94,2557.22 1697.5,2556C 1695.57,2552.74 1695.07,2549.24 1696,2545.5C 1696.69,2543.65 1697.86,2542.32 1699.5,2541.5 Z"/></g>
<g><path style="opacity:1" fill="#1b1215" d="M 1887.5,2541.5 C 1894.85,2541.54 1898.02,2545.21 1897,2552.5C 1896.53,2553.93 1895.7,2555.1 1894.5,2556C 1890.47,2556.33 1886.47,2556 1882.5,2555C 1880.08,2553 1879.24,2550.5 1880,2547.5C 1882.11,2544.88 1884.61,2542.88 1887.5,2541.5 Z"/></g>
<g><path style="opacity:1" fill="#150d14" d="M 1431.5,2546.5 C 1439.6,2545.97 1446.43,2548.63 1452,2554.5C 1456.93,2560.11 1456.43,2565.28 1450.5,2570C 1443.42,2572.95 1436.09,2573.95 1428.5,2573C 1422.96,2566.42 1422.13,2559.26 1426,2551.5C 1427.73,2549.6 1429.56,2547.93 1431.5,2546.5 Z"/></g>
<g><path style="opacity:1" fill="#160e15" d="M 2151.5,2546.5 C 2161.87,2545.54 2167.87,2550.2 2169.5,2560.5C 2168.66,2572.6 2162.33,2576.77 2150.5,2573C 2140.69,2572.2 2136.52,2567.04 2138,2557.5C 2141.82,2552.83 2146.32,2549.17 2151.5,2546.5 Z"/></g>
<g><path style="opacity:1" fill="#150d15" d="M 1480.5,2564.5 C 1495.45,2564.72 1507.61,2570.72 1517,2582.5C 1521.86,2590.02 1521.03,2597.02 1514.5,2603.5C 1504.85,2608.64 1494.51,2611.64 1483.5,2612.5C 1471.53,2612.03 1465.37,2605.7 1465,2593.5C 1463.37,2580.09 1468.54,2570.42 1480.5,2564.5 Z"/></g>
<g><path style="opacity:1" fill="#150d15" d="M 2099.5,2564.5 C 2120.51,2564.79 2129.67,2575.46 2127,2596.5C 2123.71,2609.95 2115.21,2615.12 2101.5,2612C 2093.88,2610.51 2086.55,2608.18 2079.5,2605C 2071.79,2598.03 2070.62,2590.19 2076,2581.5C 2083.11,2574.71 2090.94,2569.04 2099.5,2564.5 Z"/></g>
<g><path style="opacity:1" fill="#150d15" d="M 1549.5,2581.5 C 1562.64,2582.32 1573.14,2587.98 1581,2598.5C 1583.99,2606.03 1582.16,2612.2 1575.5,2617C 1565.47,2620.87 1555.13,2622.53 1544.5,2622C 1538.79,2618.94 1535.63,2614.11 1535,2607.5C 1533.69,2595.33 1538.53,2586.66 1549.5,2581.5 Z"/></g>
<g><path style="opacity:1" fill="#150d14" d="M 2033.5,2581.5 C 2045.06,2580.55 2052.9,2585.55 2057,2596.5C 2058.22,2604.3 2056.88,2611.63 2053,2618.5C 2051.42,2620.04 2049.59,2621.21 2047.5,2622C 2036.39,2622.58 2025.72,2620.58 2015.5,2616C 2009.31,2610.67 2008.15,2604.5 2012,2597.5C 2018.22,2590.76 2025.39,2585.43 2033.5,2581.5 Z"/></g>
<g><path style="opacity:1" fill="#140d14" d="M 1376.5,2583.5 C 1391.56,2584.38 1403.39,2591.05 1412,2603.5C 1413.26,2610.63 1411.09,2616.47 1405.5,2621C 1394.91,2625.4 1383.91,2627.4 1372.5,2627C 1365.59,2623.36 1362.09,2617.52 1362,2609.5C 1360.66,2603.19 1362,2597.52 1366,2592.5C 1369.1,2588.89 1372.6,2585.89 1376.5,2583.5 Z"/></g>
<g><path style="opacity:1" fill="#150d15" d="M 2205.5,2583.5 C 2217.51,2582.92 2225.68,2588.26 2230,2599.5C 2231.45,2607.66 2230.12,2615.33 2226,2622.5C 2224.27,2624.62 2222.1,2626.12 2219.5,2627C 2208.77,2627.87 2198.44,2626.2 2188.5,2622C 2179.63,2616.07 2177.79,2608.57 2183,2599.5C 2189.6,2592.79 2197.1,2587.46 2205.5,2583.5 Z"/></g>
<g><path style="opacity:1" fill="#160e15" d="M 1609.5,2587.5 C 1618.42,2588.24 1625.59,2592.24 1631,2599.5C 1632.15,2603.83 1631.32,2607.66 1628.5,2611C 1621.18,2614.42 1613.51,2615.75 1605.5,2615C 1596.41,2604.24 1597.74,2595.08 1609.5,2587.5 Z"/></g>
<g><path style="opacity:1" fill="#160e15" d="M 1660.5,2587.5 C 1669.42,2588.24 1676.59,2592.24 1682,2599.5C 1683.15,2603.83 1682.32,2607.66 1679.5,2611C 1672.18,2614.42 1664.51,2615.75 1656.5,2615C 1647.53,2604.32 1648.86,2595.15 1660.5,2587.5 Z"/></g>
<g><path style="opacity:1" fill="#160e14" d="M 1925.5,2587.5 C 1936.95,2588.11 1942.11,2594.11 1941,2605.5C 1940.76,2612.69 1937.09,2616.02 1930,2615.5C 1923.76,2615.02 1917.93,2613.36 1912.5,2610.5C 1909.28,2606.84 1908.78,2602.84 1911,2598.5C 1915.27,2593.96 1920.11,2590.3 1925.5,2587.5 Z"/></g>
<g><path style="opacity:1" fill="#160e14" d="M 1976.5,2587.5 C 1990.06,2588.94 1994.89,2596.27 1991,2609.5C 1990.31,2612.06 1988.81,2613.89 1986.5,2615C 1978.33,2615.87 1970.66,2614.37 1963.5,2610.5C 1960.28,2606.84 1959.78,2602.84 1962,2598.5C 1966.45,2594.2 1971.28,2590.54 1976.5,2587.5 Z"/></g>
<g><path style="opacity:1" fill="#150e15" d="M 1447.5,2619.5 C 1458.86,2619 1466.86,2623.84 1471.5,2634C 1471.09,2636.9 1470.09,2639.57 1468.5,2642C 1460.86,2645.58 1452.86,2646.91 1444.5,2646C 1439.75,2640.73 1438.25,2634.56 1440,2627.5C 1442.03,2624.31 1444.53,2621.64 1447.5,2619.5 Z"/></g>
<g><path style="opacity:1" fill="#150e15" d="M 2135.5,2619.5 C 2148.64,2619.14 2154.14,2625.47 2152,2638.5C 2151.5,2642.02 2149.66,2644.52 2146.5,2646C 2139.18,2647.14 2132.18,2646.14 2125.5,2643C 2119.7,2638.3 2119.2,2633.14 2124,2627.5C 2127.81,2624.69 2131.65,2622.02 2135.5,2619.5 Z"/></g>
<g><path style="opacity:1" fill="#fdaa00" d="M 1786.5,2649.5 C 1794.97,2649.05 1803.3,2649.88 1811.5,2652C 1859.45,2670.76 1908.45,2686.09 1958.5,2698C 1980.97,2703.08 2003.63,2707.08 2026.5,2710C 2035.49,2710.5 2044.49,2710.67 2053.5,2710.5C 2057.4,2734.9 2055.57,2758.9 2048,2782.5C 2040.04,2811.4 2028.04,2838.4 2012,2863.5C 2005.57,2873.26 1997.24,2880.93 1987,2886.5C 1982.37,2841.02 1972.7,2796.69 1958,2753.5C 1952.72,2736.99 1947.05,2720.66 1941,2704.5C 1932.3,2713.53 1923.3,2722.2 1914,2730.5C 1906.25,2719.34 1898.75,2708 1891.5,2696.5C 1886.55,2713.95 1875.38,2725.29 1858,2730.5C 1856.1,2730.39 1854.44,2729.72 1853,2728.5C 1848.77,2717.71 1844.27,2707.04 1839.5,2696.5C 1832.33,2707.5 1825.17,2718.5 1818,2729.5C 1810.58,2717 1802.92,2704.67 1795,2692.5C 1787.08,2704.67 1779.42,2717 1772,2729.5C 1764.75,2718.67 1757.75,2707.67 1751,2696.5C 1745.95,2706.97 1741.29,2717.63 1737,2728.5C 1736.33,2729.58 1735.33,2730.25 1734,2730.5C 1716.09,2725.59 1704.42,2714.25 1699,2696.5C 1691.33,2707.83 1683.67,2719.17 1676,2730.5C 1667.3,2721.47 1658.3,2712.8 1649,2704.5C 1631.31,2750.6 1617.64,2797.94 1608,2846.5C 1605.98,2859.8 1604.15,2873.14 1602.5,2886.5C 1588.48,2877.79 1577.65,2866.12 1570,2851.5C 1547.94,2812.2 1536.11,2770.03 1534.5,2725C 1534.72,2720.47 1535.22,2715.97 1536,2711.5C 1569.51,2709.47 1602.68,2704.64 1635.5,2697C 1686.68,2683.46 1737.01,2667.63 1786.5,2649.5 Z"/></g>
<g><path style="opacity:1" fill="#ffad0b" d="M 426.5,3049.5 C 425.833,3050.5 425.167,3051.5 424.5,3052.5C 367.939,3015.75 330.773,2964.75 313,2899.5C 303.968,2861.68 304.468,2824.02 314.5,2786.5C 315.002,2785.48 315.668,2785.31 316.5,2786C 383.009,2841.84 419.842,2913.34 427,3000.5C 427.757,3016.85 427.59,3033.19 426.5,3049.5 Z"/></g>
<g><path style="opacity:1" fill="#ffad0c" d="M 3223.5,2785.5 C 3224.5,2785.41 3225.33,2785.75 3226,2786.5C 3246.43,2880.86 3221.27,2960.7 3150.5,3026C 3139.24,3035.93 3127.4,3045.1 3115,3053.5C 3105.93,2945.48 3142.1,2856.14 3223.5,2785.5 Z"/></g>
<g><path style="opacity:1" fill="#be8005" d="M 1609.5,2953.5 C 1608.51,2962.65 1608.17,2971.99 1608.5,2981.5C 1607.34,2971.68 1607.18,2961.68 1608,2951.5C 1608.72,2952.04 1609.22,2952.71 1609.5,2953.5 Z"/></g>
<g><path style="opacity:1" fill="#fdaa00" d="M 1609.5,2953.5 C 1615.42,2961.93 1621.58,2970.27 1628,2978.5C 1645.8,2999.3 1663.96,3019.8 1682.5,3040C 1687.18,3044.17 1692.51,3047 1698.5,3048.5C 1700.63,3048.48 1702.63,3047.98 1704.5,3047C 1712.95,3035.55 1721.79,3024.38 1731,3013.5C 1737.33,3026.17 1743.67,3038.83 1750,3051.5C 1757.33,3039.5 1764.67,3027.5 1772,3015.5C 1779.92,3029 1787.59,3042.67 1795,3056.5C 1801.77,3042.61 1809.27,3029.28 1817.5,3016.5C 1825,3028.17 1832.5,3039.83 1840,3051.5C 1845.67,3038.82 1851.84,3026.49 1858.5,3014.5C 1867.71,3024.88 1876.37,3035.71 1884.5,3047C 1887.92,3049.85 1891.59,3050.18 1895.5,3048C 1907.99,3038.32 1919.82,3027.82 1931,3016.5C 1947.62,2995.61 1964.96,2975.28 1983,2955.5C 1982.56,2991.04 1976.89,3025.7 1966,3059.5C 1960.59,3077.39 1954.59,3095.06 1948,3112.5C 1943.53,3119.33 1937.36,3121.83 1929.5,3120C 1925.67,3118.25 1922.01,3116.25 1918.5,3114C 1908.98,3104.98 1899.32,3096.15 1889.5,3087.5C 1886.39,3091.79 1883.05,3095.95 1879.5,3100C 1874.53,3103.23 1869.53,3103.23 1864.5,3100C 1857.05,3094.88 1849.88,3089.38 1843,3083.5C 1838.17,3087.67 1833.33,3091.83 1828.5,3096C 1823.56,3099.1 1818.23,3100.1 1812.5,3099C 1805.8,3096.23 1799.3,3093.07 1793,3089.5C 1787.59,3095.95 1780.75,3099.95 1772.5,3101.5C 1768.89,3101.2 1765.55,3100.03 1762.5,3098C 1757.29,3092.96 1752.29,3087.79 1747.5,3082.5C 1741.31,3087.86 1734.98,3093.02 1728.5,3098C 1722.8,3102.59 1716.8,3103.26 1710.5,3100C 1706.15,3096.13 1702.65,3091.63 1700,3086.5C 1690.44,3096.73 1680.27,3106.23 1669.5,3115C 1663.93,3118.53 1657.93,3120.19 1651.5,3120C 1644.15,3116.31 1639.31,3110.48 1637,3102.5C 1621.08,3063.67 1611.58,3023.33 1608.5,2981.5C 1608.17,2971.99 1608.51,2962.65 1609.5,2953.5 Z"/></g>
<g><path style="opacity:1" fill="#6d490f" d="M 2180.5,2958.5 C 2180.66,2961.19 2180.5,2963.85 2180,2966.5C 2179.28,2965.96 2178.78,2965.29 2178.5,2964.5C 2179.17,2962.5 2179.83,2960.5 2180.5,2958.5 Z"/></g>
<g><path style="opacity:1" fill="#ffac08" d="M 594.5,3269.5 C 593.596,3270.21 593.263,3271.21 593.5,3272.5C 583.5,3272.5 573.5,3272.5 563.5,3272.5C 485.287,3267.15 422.12,3233.82 374,3172.5C 357.514,3151.88 344.348,3129.21 334.5,3104.5C 338.715,3102.56 343.381,3101.9 348.5,3102.5C 373.352,3104.21 397.352,3109.71 420.5,3119C 446.236,3129.12 470.403,3141.95 493,3157.5C 490.227,3146.72 488.227,3135.72 487,3124.5C 485.126,3083.87 489.292,3043.87 499.5,3004.5C 500.552,3004.35 501.552,3004.52 502.5,3005C 535.951,3028.81 559.117,3060.31 572,3099.5C 590.12,3154.74 597.62,3211.41 594.5,3269.5 Z"/></g>
<g><path style="opacity:1" fill="#ffac09" d="M 3037.5,3004.5 C 3039.12,3004.36 3040.29,3005.03 3041,3006.5C 3051.52,3046.21 3055.52,3086.55 3053,3127.5C 3051.75,3137.75 3049.75,3147.75 3047,3157.5C 3083.92,3131.97 3124.42,3114.47 3168.5,3105C 3181.4,3102.55 3194.4,3101.55 3207.5,3102C 3180.19,3168.31 3134.52,3217.65 3070.5,3250C 3031.08,3267.79 2989.74,3275.46 2946.5,3273C 2942.48,3214.15 2949.65,3156.65 2968,3100.5C 2981.19,3061.05 3004.36,3029.05 3037.5,3004.5 Z"/></g>
<g><path style="opacity:0.125" fill="#ffe8bb" d="M 426.5,3049.5 C 426.762,3050.98 426.429,3052.31 425.5,3053.5C 424.893,3053.38 424.56,3053.04 424.5,3052.5C 425.167,3051.5 425.833,3050.5 426.5,3049.5 Z"/></g>
<g><path style="opacity:0.502" fill="#ffdd98" d="M 348.5,3102.5 C 343.381,3101.9 338.715,3102.56 334.5,3104.5C 333.596,3103.79 333.263,3102.79 333.5,3101.5C 338.695,3101.18 343.695,3101.51 348.5,3102.5 Z"/></g>
<g><path style="opacity:1" fill="#865a0c" d="M 1453.5,3107.5 C 1453.56,3106.96 1453.89,3106.62 1454.5,3106.5C 1455.49,3110.45 1455.82,3114.45 1455.5,3118.5C 1454.83,3114.83 1454.17,3111.17 1453.5,3107.5 Z"/></g>
<g><path style="opacity:1" fill="#ffac08" d="M 2876.5,3238.5 C 2877.45,3239.92 2877.78,3241.59 2877.5,3243.5C 2877.09,3284.78 2871.92,3325.44 2862,3365.5C 2859.07,3376.19 2854.9,3386.36 2849.5,3396C 2879.55,3383.65 2910.89,3375.99 2943.5,3373C 2968.18,3370.96 2992.51,3372.96 3016.5,3379C 3018.77,3380.08 3018.93,3381.58 3017,3383.5C 2981.28,3436.18 2932.44,3470.68 2870.5,3487C 2826.45,3498.34 2781.78,3501.84 2736.5,3497.5C 2734.85,3495.54 2734.18,3493.21 2734.5,3490.5C 2738.57,3435.89 2753.07,3384.22 2778,3335.5C 2796.23,3300.57 2821.73,3272.07 2854.5,3250C 2861.41,3245.38 2868.75,3241.54 2876.5,3238.5 Z"/></g>
<g><path style="opacity:0.251" fill="#ffedc8" d="M 2876.5,3238.5 C 2876.56,3237.96 2876.89,3237.62 2877.5,3237.5C 2878.79,3239.64 2878.79,3241.64 2877.5,3243.5C 2877.78,3241.59 2877.45,3239.92 2876.5,3238.5 Z"/></g>
<g><path style="opacity:1" fill="#ffac08" d="M 662.5,3237.5 C 691.533,3251.03 716.033,3270.36 736,3295.5C 762.708,3331.26 781.708,3370.92 793,3414.5C 800.314,3441.72 804.814,3469.39 806.5,3497.5C 761.631,3501.69 717.297,3498.52 673.5,3488C 619.966,3474.33 575.133,3446.83 539,3405.5C 532.549,3397.43 526.716,3388.93 521.5,3380C 546.364,3373.05 571.697,3370.71 597.5,3373C 629.702,3375.59 660.536,3383.43 690,3396.5C 680.683,3376.2 674.35,3354.87 671,3332.5C 665.795,3301.04 662.962,3269.38 662.5,3237.5 Z"/></g>
<g><path style="opacity:0.502" fill="#ffd98b" d="M 594.5,3269.5 C 594.5,3270.83 594.5,3272.17 594.5,3273.5C 583.986,3273.83 573.653,3273.49 563.5,3272.5C 573.5,3272.5 583.5,3272.5 593.5,3272.5C 593.263,3271.21 593.596,3270.21 594.5,3269.5 Z"/></g>
<g><path style="opacity:1" fill="#ffac09" d="M 859.5,3439.5 C 908.79,3454.56 950.29,3481.56 984,3520.5C 1019.8,3562.78 1043.97,3611.11 1056.5,3665.5C 1016.07,3677.82 974.741,3682.99 932.5,3681C 857.56,3675.49 793.727,3646.33 741,3593.5C 740.383,3592.55 740.549,3591.72 741.5,3591C 797.229,3582.54 852.896,3582.54 908.5,3591C 901.529,3581.57 895.696,3571.4 891,3560.5C 875.651,3521.44 865.151,3481.1 859.5,3439.5 Z"/></g>
<g><path style="opacity:1" fill="#ffac09" d="M 2676.5,3439.5 C 2677.83,3439.5 2679.17,3439.5 2680.5,3439.5C 2675.32,3481.57 2664.82,3522.23 2649,3561.5C 2644.09,3572 2638.76,3582 2633,3591.5C 2678.27,3584.54 2723.77,3583.04 2769.5,3587C 2779.98,3587.93 2790.32,3589.59 2800.5,3592C 2742.51,3651.15 2671.84,3680.98 2588.5,3681.5C 2552.59,3681.35 2517.59,3675.68 2483.5,3664.5C 2499.76,3597.11 2533.1,3539.94 2583.5,3493C 2611.16,3469.5 2642.16,3451.66 2676.5,3439.5 Z"/></g>
<g><path style="opacity:0.502" fill="#ffdd99" d="M 2734.5,3490.5 C 2734.18,3493.21 2734.85,3495.54 2736.5,3497.5C 2735.5,3497.5 2734.5,3497.5 2733.5,3497.5C 2733.2,3494.94 2733.53,3492.61 2734.5,3490.5 Z"/></g>
<g><path style="opacity:0.439" fill="#ffe5b1" d="M 1099.5,3598.5 C 1097.82,3598.29 1096.82,3598.95 1096.5,3600.5C 1095.6,3599.79 1095.26,3598.79 1095.5,3597.5C 1097.1,3597.23 1098.43,3597.57 1099.5,3598.5 Z"/></g>
<g><path style="opacity:1" fill="#ffad09" d="M 1099.5,3598.5 C 1133.1,3604.47 1163.77,3617.3 1191.5,3637C 1247.25,3679.63 1289.25,3733.13 1317.5,3797.5C 1247.13,3826.86 1174.13,3836.36 1098.5,3826C 1059.23,3819.85 1022.9,3806.19 989.5,3785C 988.167,3784 988.167,3783 989.5,3782C 1046.56,3750.82 1107.56,3736.82 1172.5,3740C 1155.6,3723.09 1141.77,3703.93 1131,3682.5C 1117.05,3656.15 1105.55,3628.81 1096.5,3600.5C 1096.82,3598.95 1097.82,3598.29 1099.5,3598.5 Z"/></g>
<g><path style="opacity:1" fill="#ffad09" d="M 2300.5,3679.5 C 2306.44,3675.23 2311.78,3670.23 2316.5,3664.5C 2352.02,3629.07 2394.69,3606.73 2444.5,3597.5C 2431.71,3639.07 2413.55,3678.07 2390,3714.5C 2383.58,3723.59 2376.42,3732.09 2368.5,3740C 2433.58,3736.69 2494.58,3750.85 2551.5,3782.5C 2552.83,3783.17 2552.83,3783.83 2551.5,3784.5C 2513.69,3808.61 2472.36,3823.11 2427.5,3828C 2356.57,3834.96 2288.24,3824.79 2222.5,3797.5C 2242.04,3753.71 2268.04,3714.38 2300.5,3679.5 Z"/></g>
<g><path style="opacity:0.816" fill="#ffce75" d="M 2316.5,3664.5 C 2311.78,3670.23 2306.44,3675.23 2300.5,3679.5C 2305.22,3673.77 2310.56,3668.77 2316.5,3664.5 Z"/></g>
<g><path style="opacity:1" fill="#ffad0a" d="M 1353.5,3731.5 C 1389.8,3734.08 1424.47,3742.91 1457.5,3758C 1470.38,3765.55 1482.71,3773.88 1494.5,3783C 1521.54,3807.04 1548.87,3830.71 1576.5,3854C 1612.06,3877.6 1651.06,3892.6 1693.5,3899C 1758.49,3909.72 1822.82,3906.72 1886.5,3890C 1916.73,3881.72 1944.4,3868.38 1969.5,3850C 1998.24,3823.92 2027.58,3798.59 2057.5,3774C 2087.21,3753.04 2120.21,3740.2 2156.5,3735.5C 2166.77,3733.44 2177.1,3732.27 2187.5,3732C 2165.6,3775.12 2136.27,3812.45 2099.5,3844C 2088.35,3852.74 2076.69,3860.74 2064.5,3868C 2126.51,3865.5 2185.17,3878.17 2240.5,3906C 2245.33,3908.58 2250,3911.42 2254.5,3914.5C 2198.45,3944.26 2138.78,3956.76 2075.5,3952C 2037.54,3945.08 1999.54,3938.41 1961.5,3932C 1897.29,3924.31 1833.63,3927.47 1770.5,3941.5C 1702.62,3926.34 1634.29,3923.84 1565.5,3934C 1528.94,3940.98 1492.27,3947.31 1455.5,3953C 1396.2,3955.34 1340.2,3942.84 1287.5,3915.5C 1286.29,3914.73 1286.29,3913.89 1287.5,3913C 1346.07,3879.95 1409.07,3864.95 1476.5,3868C 1450.49,3852.88 1427.32,3834.05 1407,3811.5C 1385.43,3787.36 1367.59,3760.69 1353.5,3731.5 Z"/></g>
</svg>
